<svg version="1.1" id="Layer_1" xmlns="http://www.w3.org/2000/svg" xmlns:xlink="http://www.w3.org/1999/xlink" x="0px" y="0px"
	 width="100%" viewBox="0 0 1024 1024" enable-background="new 0 0 1024 1024" xml:space="preserve">
<path fill="#b69353" opacity="1.000000" stroke="none" 
	d="
M148.052765,369.250305 
	C158.303650,325.726776 177.123260,286.377197 200.393295,248.964600 
	C215.425247,224.796829 233.486084,203.130371 253.682739,183.092575 
	C268.362152,168.528610 282.975525,153.939102 299.513062,141.464005 
	C326.202606,121.330765 355.070435,104.992424 385.676361,91.530022 
	C404.641693,83.187912 424.267670,77.128334 444.112823,71.364571 
	C469.530457,63.982346 495.542786,60.240417 521.708740,58.246967 
	C539.231079,56.912025 556.981750,58.675205 574.632202,58.899353 
	C616.396545,59.429726 656.495422,68.644676 695.427246,82.969002 
	C717.733887,91.176338 739.148499,101.402992 759.918518,113.284180 
	C775.751343,122.341118 790.575317,132.654388 805.237976,143.249771 
	C819.815125,153.783386 832.245117,166.897675 845.119507,179.423569 
	C860.668518,194.551682 875.404724,210.387390 887.862915,228.232651 
	C903.806213,251.069916 918.125244,274.748199 929.940918,300.101776 
	C943.969421,330.203461 953.350342,361.618195 960.547119,393.843384 
	C965.032471,413.927704 966.491089,434.344116 967.029236,454.844940 
	C967.624084,477.506592 968.129395,500.208008 965.518005,522.760864 
	C962.392151,549.757446 956.233093,576.131165 948.070984,602.084961 
	C937.608704,635.352783 922.343567,666.210632 904.372864,696.045959 
	C884.789246,728.558899 859.023682,755.519897 832.080017,781.661621 
	C817.809082,795.507874 802.240662,807.547913 785.767761,818.745544 
	C767.793823,830.963440 749.101257,841.778870 729.602661,851.092224 
	C709.779297,860.560852 689.301331,868.615723 667.982727,874.330627 
	C647.402832,879.847534 626.744812,885.027954 605.582947,887.694702 
	C579.565369,890.973328 553.444092,890.673279 527.279602,889.598511 
	C507.606476,888.790344 488.142487,886.530090 468.857483,882.828552 
	C440.306335,877.348572 412.846344,868.330383 386.127899,856.852844 
	C349.427063,841.086914 315.916016,820.312805 285.198517,794.795349 
	C257.371613,771.679260 232.636749,745.638977 211.698456,716.259155 
	C177.730148,668.596191 154.944199,615.950989 143.606583,558.368530 
	C137.735931,528.552063 134.426941,498.505981 134.229187,468.177032 
	C134.075974,444.676971 136.934509,421.382263 141.127975,398.242615 
	C142.881790,388.565033 145.456451,379.122009 148.052765,369.250305 
M701.906738,847.364075 
	C732.073120,834.307800 761.077087,819.317871 787.715393,799.736755 
	C830.528442,768.266174 866.348755,730.303284 894.153442,685.197998 
	C913.774780,653.368103 929.202515,619.409729 938.793823,583.001282 
	C944.944580,559.653015 950.208374,536.142029 952.531372,512.105530 
	C954.538269,491.339203 953.015991,470.489105 952.354187,449.700714 
	C951.958374,437.268372 951.839111,424.672119 949.373169,412.448364 
	C943.849854,385.069733 938.316101,357.695526 927.892883,331.553467 
	C914.750671,298.591858 898.333252,267.465210 877.701416,238.601242 
	C859.778015,213.526474 838.252686,191.762299 815.391663,171.218277 
	C786.925293,145.637070 755.341064,124.795433 720.440918,109.184502 
	C690.910278,95.975365 660.405701,85.707443 628.573547,79.200638 
	C603.989868,74.175468 579.212158,71.681061 554.281128,71.689796 
	C536.041626,71.696190 517.724060,72.410477 499.555328,75.173500 
	C476.844818,78.627228 454.176666,82.417580 432.331055,89.512436 
	C399.776947,100.085114 368.639496,113.936607 339.418030,131.992950 
	C303.802704,154.000153 272.863861,181.352905 245.527466,212.904648 
	C228.378159,232.698425 213.506866,254.126801 200.417877,276.796570 
	C193.024033,289.602509 186.160492,302.717926 180.815552,316.493500 
	C173.654938,334.948608 167.197922,353.656586 161.945892,372.787384 
	C155.495300,396.284027 150.798920,420.230042 149.723038,444.404327 
	C148.335037,475.591949 148.616180,506.904846 154.135254,537.931824 
	C159.452499,567.824158 166.109543,597.328491 178.175003,625.269409 
	C191.510986,656.152344 206.882523,685.933105 227.561050,712.762268 
	C248.372726,739.764343 270.959778,765.014893 297.673706,786.327759 
	C332.272827,813.931702 369.965942,836.090271 411.536011,851.703735 
	C445.576996,864.489319 480.701935,872.503845 516.778137,875.350281 
	C545.662048,877.629333 574.813416,876.916687 603.560059,873.261169 
	C637.099304,868.996216 670.140320,861.847778 701.906738,847.364075 
z"/>
<path fill="#b39653" opacity="1.000000" stroke="none" 
	d="
M508.000000,557.335449 
	C475.684265,557.124695 443.862183,557.755066 412.053314,556.466797 
	C406.614471,556.246582 402.375671,552.802551 397.328003,551.465820 
	C395.423615,550.961487 392.949158,546.030762 392.627319,542.265991 
	C391.077698,524.137512 392.088318,505.967804 391.771576,487.819366 
	C391.567871,476.147552 392.248108,464.507874 392.884613,452.875671 
	C393.255585,446.095978 397.162201,440.466766 400.595978,434.860718 
	C402.475739,431.791718 404.669586,428.946930 406.276184,425.663818 
	C408.746063,420.616638 416.574432,416.815948 422.102539,417.516296 
	C423.081177,417.640259 424.160187,417.758789 425.074768,417.485229 
	C442.274506,412.340729 459.628021,414.679504 476.927368,416.566345 
	C480.565308,416.963165 482.689240,415.732544 484.341309,412.953461 
	C485.923157,410.292572 487.816925,408.252502 490.977936,407.324677 
	C492.826355,406.782135 494.468628,405.493652 494.560669,403.038483 
	C494.872772,394.714661 500.780884,389.970428 507.198181,387.296661 
	C515.419312,383.871277 523.907837,380.182404 533.614990,382.441803 
	C537.934937,383.447296 542.726990,382.932770 547.395569,381.533234 
	C550.975159,380.460114 555.084351,381.324982 557.335327,385.359772 
	C557.578369,385.795410 557.753296,386.405212 558.133667,386.607819 
	C564.405701,389.948608 568.465271,395.057007 571.956848,401.256958 
	C573.418213,403.851837 575.038391,405.490570 573.338440,408.450897 
	C574.180847,408.904877 574.823242,409.562592 575.285339,409.453918 
	C584.068604,407.388397 591.922119,409.326508 599.012268,414.761169 
	C599.931702,415.465973 601.402039,415.954407 601.720337,416.858734 
	C603.619690,422.254700 610.693298,423.145477 612.077087,429.550781 
	C612.524292,431.620636 616.606262,434.211975 618.895569,436.770081 
	C622.016907,440.257904 622.875000,444.278503 623.259277,448.558990 
	C623.624390,452.625732 622.657104,456.821716 625.087891,460.655579 
	C625.697083,461.616455 625.664429,463.439056 625.192993,464.555908 
	C622.303589,471.401123 623.802063,478.167267 625.225403,484.960419 
	C626.109680,489.180878 624.094116,493.125732 624.143677,497.318817 
	C624.253906,506.638489 624.474976,515.971375 623.466736,525.280518 
	C623.151428,528.191833 623.153259,531.052063 624.822205,533.936401 
	C627.046326,537.780151 623.311523,541.088806 622.762878,544.779785 
	C622.062012,549.494629 619.117371,551.510437 614.250916,553.789734 
	C604.464600,558.373291 594.657532,556.778320 584.971741,557.023926 
	C559.494934,557.669983 533.992310,557.299438 508.000000,557.335449 
M489.214142,525.315552 
	C491.737427,533.669617 499.700165,535.961792 506.163574,538.892944 
	C512.555847,541.791870 519.963440,542.724243 526.314392,546.090698 
	C530.250793,548.177307 532.127747,548.098877 533.232788,543.946899 
	C533.991333,541.096863 535.636536,540.651978 537.992432,540.853455 
	C540.567261,541.073853 542.799500,542.093506 544.676697,543.889771 
	C545.775513,544.941162 546.975037,546.064392 548.619934,545.472351 
	C552.467163,544.087708 556.308716,542.931580 559.965820,540.770325 
	C567.551392,536.287598 571.741333,527.534424 580.640503,524.822083 
	C581.578857,524.536133 582.267395,523.206421 582.925232,522.259094 
	C589.781982,512.385681 589.136597,500.459747 591.541809,489.417542 
	C592.788269,483.695343 587.977600,478.365387 588.829468,471.894806 
	C589.413513,467.459229 585.947083,462.802734 583.193604,458.949463 
	C579.373718,453.603851 575.010498,448.491913 569.020325,445.407806 
	C566.200439,443.955933 562.383118,444.213562 562.111450,439.602203 
	C562.041870,438.420532 560.159668,437.086334 559.040771,437.559357 
	C554.778809,439.361115 551.685547,436.716248 548.309265,435.191132 
	C544.203918,433.336609 540.216980,431.540283 535.619629,433.897125 
	C534.568848,434.435791 532.798340,434.399475 531.706482,433.887268 
	C526.670532,431.524994 521.813477,435.039154 516.647156,434.098877 
	C513.986511,433.614655 509.163727,435.756531 508.023834,438.054230 
	C505.480560,443.180786 501.000671,444.813385 496.690002,447.119415 
	C490.752319,450.295807 485.610565,455.275635 484.734741,461.417938 
	C483.747314,468.343140 475.977173,473.285980 479.460907,481.146545 
	C479.540802,481.326813 479.061920,481.694183 479.010498,482.002136 
	C478.006073,488.016052 476.420563,494.625610 478.304871,500.036804 
	C481.213898,508.390594 485.539246,516.344543 489.214142,525.315552 
M460.098846,524.639160 
	C460.660583,502.277924 461.466095,479.909821 459.496002,456.255981 
	C454.064026,462.225098 454.573578,531.169800 459.173279,537.785950 
	C460.218842,533.480957 459.984009,529.516602 460.098846,524.639160 
M437.721863,427.179504 
	C435.843719,426.647430 433.730286,426.231049 433.705414,429.015289 
	C433.680756,431.775726 435.705688,433.716797 438.091827,434.525757 
	C440.418976,435.314697 443.362518,435.525635 444.860229,433.013062 
	C445.762299,431.499664 447.058868,429.340332 445.665100,427.458923 
	C443.724243,424.838959 441.245544,426.010712 438.910889,427.037109 
	C438.761322,427.102844 438.587280,427.112946 437.721863,427.179504 
z"/>
<path fill="#b39653" opacity="1.000000" stroke="none" 
	d="
M475.181030,735.045288 
	C480.157135,735.413269 484.402802,733.822083 488.516327,732.216675 
	C495.315857,729.562927 501.820648,726.760010 509.558289,728.581909 
	C513.458862,729.500305 517.844177,729.162170 521.827759,727.408447 
	C523.703308,726.582825 525.772278,726.387573 527.667419,727.311707 
	C531.160034,729.014832 534.698303,730.163147 538.676575,729.669312 
	C540.046265,729.499329 541.148193,730.525940 542.175598,731.395630 
	C547.541260,735.937683 556.819092,735.555725 563.006470,732.775818 
	C568.892334,730.131348 574.777344,725.634460 582.502197,729.175903 
	C585.533813,730.565796 590.091492,729.280457 593.773499,728.430664 
	C598.234436,727.401123 602.233398,727.295349 606.014282,730.212402 
	C608.189392,731.890564 610.284363,731.502686 612.957214,730.632446 
	C618.705627,728.760864 623.961853,728.973755 629.711121,732.984009 
	C633.555664,735.665588 638.773254,737.777039 643.909241,738.810242 
	C648.051575,739.643616 651.992493,741.045593 656.319397,741.511475 
	C660.801819,741.994080 665.070190,744.579895 668.890076,747.353027 
	C669.562866,747.841492 670.106079,748.677063 670.841492,748.885376 
	C680.435486,751.602905 688.302307,758.388550 698.162842,760.453796 
	C698.488464,760.521912 698.836365,760.714722 699.133606,760.653564 
	C706.447205,759.149963 712.935974,762.691467 719.817627,763.831970 
	C722.737305,764.315857 725.974792,763.003052 729.048157,762.405457 
	C732.504089,761.733398 735.895752,761.245178 739.391418,762.395264 
	C741.868225,763.210083 743.841370,761.367310 745.938171,760.488403 
	C749.103149,759.161865 752.158936,757.734802 755.243286,761.530762 
	C757.694092,757.194763 762.157715,755.618042 764.786682,751.885864 
	C766.793884,749.036316 774.217590,748.818237 776.739258,751.123169 
	C779.187195,753.360596 777.731567,755.328674 776.174255,757.175720 
	C773.231445,760.666199 768.247681,761.586182 765.440613,764.955078 
	C760.829956,770.488647 752.347046,770.545044 748.776855,777.426880 
	C747.957275,779.006653 745.644592,779.351440 743.779663,779.163147 
	C738.555237,778.635742 734.281921,781.032043 730.709473,784.164368 
	C727.604736,786.886475 724.359131,787.733459 720.627869,787.282288 
	C715.444641,786.655701 710.468689,787.141235 705.481873,788.693481 
	C702.264282,789.694946 698.878174,789.644043 695.659485,788.363464 
	C691.666992,786.774963 686.886658,785.522156 683.314148,785.811035 
	C677.103821,786.313232 672.790283,784.707703 667.308960,782.084290 
	C660.654480,778.899353 653.520264,776.116699 646.540771,773.319092 
	C642.769958,771.807556 640.229858,767.335266 636.055664,766.809326 
	C629.137695,765.937805 624.634705,762.392578 621.438538,756.550598 
	C620.589417,754.998291 618.824951,753.851379 617.349976,753.994019 
	C611.644165,754.545715 608.130981,750.324158 605.541931,747.052917 
	C602.792603,743.579102 599.686768,742.159790 596.351135,742.522705 
	C590.564941,743.152283 585.127991,742.455444 579.585876,741.171692 
	C577.949097,740.792542 575.984619,740.385620 574.081482,741.960266 
	C575.982605,744.219849 577.244507,747.025208 581.103088,745.854858 
	C583.142456,745.236267 584.523132,746.522766 585.740906,748.049255 
	C589.776428,753.107666 595.012024,755.776855 601.410522,757.107483 
	C605.971436,758.055847 610.203674,761.360229 612.478455,765.137878 
	C614.588928,768.642517 618.143494,770.505493 620.574768,770.978394 
	C627.337891,772.293762 629.071350,778.528992 633.607178,781.768921 
	C637.869202,784.813354 639.916016,790.167114 645.266418,792.151184 
	C648.391846,793.310120 649.603882,800.588928 647.375916,803.572205 
	C644.642212,807.232849 640.875366,809.615601 636.538147,811.083740 
	C635.426086,811.460144 634.489929,811.128418 633.851501,810.309265 
	C629.046753,804.144531 622.616516,799.695435 616.758911,794.733215 
	C612.102844,790.789062 606.915039,787.425354 603.015076,782.666199 
	C599.055298,777.833923 593.294861,774.900696 589.767761,769.646118 
	C585.150024,762.766602 576.493408,762.285400 570.467773,757.609558 
	C568.663513,756.209412 566.321045,755.436523 565.758423,752.752014 
	C565.452271,751.291260 564.031799,750.436523 562.748657,750.508484 
	C558.178589,750.764954 553.898376,749.360291 549.488403,748.748474 
	C545.733826,748.227417 541.704590,749.490234 539.395447,753.026306 
	C536.287109,757.786377 531.832153,760.262878 526.537170,761.552551 
	C525.260681,761.863525 523.747559,761.620728 522.924500,762.894409 
	C517.318298,771.570618 508.149628,776.536865 500.795044,783.312317 
	C493.209503,790.300537 487.088989,798.442871 479.772614,805.551147 
	C474.083282,811.078735 467.106415,811.652161 461.283997,806.167297 
	C459.849304,804.815735 458.317749,803.521851 456.997833,802.131714 
	C454.720673,799.733459 455.640106,796.956360 457.612396,794.569458 
	C463.197510,787.810425 471.108795,784.066528 477.782898,778.800720 
	C487.260529,771.323059 497.684814,765.129272 506.676025,757.003479 
	C510.357819,753.676086 514.363647,750.622314 519.891235,750.105713 
	C522.678772,749.845215 525.538269,748.112976 527.627319,745.808472 
	C528.704407,744.620300 529.235779,743.189087 528.366882,741.693970 
	C527.574585,740.330566 526.222473,740.317261 524.832764,740.676819 
	C520.819031,741.715576 516.605408,742.024170 512.859741,744.050354 
	C511.995026,744.518127 510.937103,745.136353 510.066864,745.009216 
	C499.089874,743.405762 492.748993,749.935364 486.830383,757.694519 
	C484.847656,760.293884 481.796844,762.068909 478.627167,763.245544 
	C472.765778,765.421326 467.373230,768.188110 464.052032,773.842529 
	C463.430359,774.900879 462.375885,775.915161 461.286316,775.767639 
	C453.744537,774.746521 448.568146,780.906128 441.956085,782.050903 
	C435.634644,783.145447 430.540283,789.058777 423.444000,786.584717 
	C418.458038,790.992371 411.829132,789.332703 406.171082,791.259705 
	C405.227325,791.581116 404.180359,792.292847 403.337708,792.108521 
	C396.206268,790.548035 388.515045,792.098083 381.781860,788.600281 
	C373.408508,784.250427 364.671692,781.136414 355.432678,779.203613 
	C352.125549,778.511780 349.455353,776.302979 348.065247,772.979492 
	C347.447418,771.502380 346.734009,770.141418 344.800598,770.766418 
	C342.102509,771.638672 340.239288,770.041382 338.559967,768.515564 
	C335.355713,765.604126 333.924957,761.341492 330.442841,758.371277 
	C328.315857,756.557068 329.732574,751.899536 332.013611,750.455444 
	C334.931305,748.608276 337.069336,751.895447 337.643860,754.327515 
	C339.407410,761.793213 346.232422,761.839172 351.336761,763.335388 
	C356.077789,764.725037 361.532837,764.257996 366.623413,762.902405 
	C369.046112,762.257202 371.309052,763.047607 373.059814,764.795898 
	C375.885345,767.617432 379.357849,767.193115 381.694824,765.153564 
	C385.779846,761.588318 390.624298,762.143677 394.432159,763.369263 
	C398.616760,764.716064 401.113495,763.157654 403.907318,761.349792 
	C406.379669,759.750000 408.504333,758.520325 411.722290,759.584473 
	C413.382996,760.133667 415.977417,759.631714 417.468048,758.609863 
	C423.294281,754.616150 430.596344,754.316833 436.474731,750.689087 
	C440.872650,747.975037 446.107666,747.331482 450.456329,744.478760 
	C453.189484,742.685852 456.606659,741.992859 458.518738,738.914307 
	C459.829956,736.803223 462.120422,736.353577 464.283539,736.900513 
	C468.122772,737.871277 471.506500,736.964966 475.181030,735.045288 
z"/>
<path fill="#b39653" opacity="1.000000" stroke="none" 
	d="
M205.285553,339.271484 
	C209.083649,335.060089 213.313889,331.711090 212.181442,325.124542 
	C211.799408,322.902496 214.017929,319.688293 215.891022,317.736694 
	C219.826492,313.636230 221.668579,308.365906 224.724152,303.806244 
	C225.634781,302.447296 226.764053,301.172852 228.013611,300.121796 
	C229.109238,299.200195 230.532639,299.277435 231.725342,300.170441 
	C232.556244,300.792603 233.094559,301.679871 232.892456,302.765717 
	C232.622833,304.214203 231.757172,305.307129 230.230942,305.271606 
	C228.157776,305.223358 226.296509,305.665283 226.238937,307.957184 
	C226.183823,310.150391 228.068893,310.009277 229.831726,310.272552 
	C232.789627,310.714233 234.524429,319.480072 231.874725,321.330048 
	C221.217209,328.770721 223.911163,337.305603 226.608719,345.980042 
	C227.793793,349.790863 229.852081,353.188019 227.549026,357.294495 
	C227.001572,358.270630 227.261383,360.031097 227.734863,361.192322 
	C230.108276,367.013031 229.151550,372.741364 227.546906,378.469513 
	C227.014816,380.368866 227.221588,381.841187 228.500916,383.525452 
	C231.613846,387.623718 233.694977,392.024841 230.077362,397.014648 
	C229.193237,398.234100 229.776703,399.548523 229.990067,400.863922 
	C230.444809,403.667389 230.630554,406.293304 228.525925,408.849945 
	C226.102005,411.794525 228.652512,413.124664 231.623352,414.900208 
	C233.649353,408.164581 238.426315,403.145874 239.556381,396.371582 
	C239.989380,393.775970 241.472733,391.818817 243.504257,390.212616 
	C245.471237,388.657471 247.049194,386.833527 247.583984,384.076447 
	C244.627625,382.520538 242.258179,384.445892 239.790131,384.844574 
	C236.507904,385.374786 234.898941,384.892975 236.072693,380.985565 
	C237.187393,377.274780 237.004745,373.518890 235.555817,369.769745 
	C234.203430,366.270416 234.131744,362.559570 235.704651,359.061859 
	C236.492355,357.310150 237.001831,355.499603 236.606049,353.735077 
	C234.583069,344.716553 237.743912,335.644592 236.454529,326.776550 
	C235.524231,320.378235 236.983444,314.489807 237.233551,308.394196 
	C237.408432,304.132141 237.727478,300.152557 238.698395,296.006378 
	C239.536407,292.427826 242.736389,290.941284 244.264908,287.986298 
	C247.144089,282.420166 246.737167,275.330933 252.364792,271.014618 
	C254.277939,269.547272 255.322586,267.151062 258.214081,266.720428 
	C259.424591,266.540161 260.904724,265.058624 261.412140,263.820343 
	C263.364960,259.054504 267.085754,257.162354 271.834229,256.456268 
	C274.330078,256.085144 276.553223,254.992859 278.599792,253.443665 
	C279.704041,252.607773 281.133972,251.279068 282.535400,252.881180 
	C283.894989,254.435471 283.209717,256.182678 281.927917,257.341705 
	C279.406158,259.621979 278.218994,263.129333 275.813446,265.113129 
	C270.830933,269.222107 271.178833,274.670624 270.959808,279.921082 
	C270.851501,282.517578 270.545532,284.726898 268.370300,285.900116 
	C263.975372,288.270538 264.120392,291.822601 265.476746,295.641449 
	C266.779785,299.310211 266.173431,301.964600 262.750153,304.172150 
	C260.624542,305.542847 259.693573,307.369629 260.594818,310.516479 
	C261.678162,314.299011 260.638428,318.083466 258.156738,321.743896 
	C255.388290,325.827301 253.800308,330.728485 253.275635,336.776123 
	C257.086609,334.218536 259.926605,331.934326 261.638092,328.789795 
	C264.086243,324.291779 267.680847,321.333801 272.271423,319.468536 
	C279.284454,316.619019 284.912476,311.896729 290.104248,306.564087 
	C290.958801,305.686340 291.914673,305.205505 293.076324,304.879059 
	C294.171021,304.571381 295.578400,304.254242 296.168518,303.445374 
	C302.700104,294.492767 313.798462,289.275330 317.183197,277.750397 
	C317.741608,275.849030 319.291779,274.727478 321.102692,274.184601 
	C323.096588,273.586884 324.546509,274.227417 324.138397,276.602173 
	C323.214935,281.975708 325.564240,288.459595 319.058990,291.994720 
	C319.947021,297.072296 314.732605,300.390594 315.197662,305.382446 
	C315.284790,306.317719 315.103119,307.547852 314.543762,308.231262 
	C309.680969,314.172638 306.836212,321.836731 299.315735,325.537811 
	C296.055817,327.142151 292.945404,329.297546 292.743622,333.616058 
	C292.656555,335.480774 291.420258,336.364960 289.751221,336.249603 
	C286.723389,336.040375 285.279144,337.184601 284.670135,340.268219 
	C284.138184,342.961792 281.766602,344.569519 279.641235,346.254211 
	C273.536011,351.093658 266.696411,355.168671 262.558258,362.126770 
	C262.102661,362.892883 261.681396,363.325317 260.611511,363.185333 
	C256.707428,362.674316 254.970428,365.234467 252.837357,368.061371 
	C250.281738,371.448242 250.764450,374.008087 253.396881,377.334045 
	C257.747498,375.924194 260.160095,372.003845 263.260498,368.981506 
	C266.419983,365.901489 267.962952,361.076569 274.033722,361.352234 
	C276.311981,361.455688 276.599213,356.873291 278.545685,354.773193 
	C281.469086,351.619019 285.670898,349.604584 287.259460,345.182495 
	C287.526276,344.439880 288.785553,344.630341 289.497650,345.162720 
	C290.664551,346.035095 291.136383,347.341705 290.862030,348.703461 
	C290.273163,351.626404 290.120117,354.878754 288.664398,357.328064 
	C286.554932,360.877350 286.644775,365.033936 284.504883,368.584045 
	C283.111938,370.894928 281.330811,373.795532 283.041718,377.043518 
	C283.593750,378.091492 283.241577,379.627289 282.279236,380.267303 
	C274.479218,385.455109 273.573883,395.325531 267.515656,401.859375 
	C264.910919,404.668549 264.856140,409.850311 263.669403,413.961884 
	C263.210541,415.551727 263.303070,418.009857 261.851044,418.435760 
	C255.519424,420.292725 252.885941,426.124451 249.083206,430.392578 
	C244.995499,434.980560 238.909546,438.624176 238.594788,445.891174 
	C238.510513,447.836823 236.173141,448.216583 235.789185,449.847626 
	C234.838486,453.886261 231.152405,456.805511 232.800552,462.121521 
	C233.963043,465.871124 230.615097,469.980072 227.053070,472.485291 
	C225.024094,473.912323 223.638443,473.254944 223.645386,470.470428 
	C223.657425,465.640076 224.753403,460.775513 222.807892,455.993683 
	C222.247452,454.616241 222.021011,453.147003 220.873001,452.075806 
	C218.211929,449.592865 215.252930,448.098267 217.209244,442.772064 
	C218.323685,439.737915 214.802597,434.836670 212.992065,430.951782 
	C211.828659,428.455383 211.294144,425.554657 208.905792,423.668976 
	C207.912827,422.885040 207.949295,421.660858 208.400497,420.445496 
	C209.009979,418.803864 208.934509,417.117584 207.993759,415.629120 
	C204.445602,410.015137 202.916809,403.512085 200.587891,397.433716 
	C199.334488,394.162476 199.724411,389.699036 199.773956,385.783203 
	C199.864182,378.651611 200.076065,371.506897 200.402969,364.386871 
	C200.688309,358.172302 202.816681,353.162689 205.149002,347.897705 
	C205.603455,346.871826 205.727539,345.983063 204.853088,345.194641 
	C202.659058,343.216522 203.570435,341.365112 205.285553,339.271484 
z"/>
<path fill="#b39653" opacity="1.000000" stroke="none" 
	d="
M562.466309,581.289673 
	C562.582214,587.410889 565.940796,592.687500 564.700134,598.710999 
	C564.035950,601.935364 566.702087,604.641052 568.061768,607.399414 
	C569.688904,610.700439 570.357849,613.593384 569.580688,617.332275 
	C568.560791,622.239319 569.513306,627.256348 571.131653,632.048462 
	C571.394470,632.826599 572.175171,634.127014 572.010193,634.251709 
	C566.120178,638.704529 572.173645,644.846069 569.726440,650.032471 
	C568.289429,653.077881 566.989319,654.066833 563.944763,653.930603 
	C558.176636,653.672546 554.842529,658.323853 556.569519,663.972717 
	C557.137512,665.830505 558.403687,666.761169 560.276001,666.669250 
	C564.972534,666.438843 568.256836,667.972839 568.170837,673.249634 
	C568.103455,677.382874 564.946411,679.156128 558.811890,678.867249 
	C558.173828,678.837097 557.529419,678.941162 556.934387,678.979980 
	C555.247131,687.314697 557.065369,690.070862 564.435547,690.667847 
	C566.653015,690.847534 569.312866,690.250854 569.426147,693.935242 
	C569.545044,697.802979 568.528870,701.319214 564.561951,702.105652 
	C558.653992,703.276978 552.810547,700.635620 546.795227,700.812195 
	C544.504333,700.879456 544.662964,698.142517 544.752075,696.369263 
	C545.117371,689.104370 543.059998,681.948425 544.548828,674.560364 
	C546.121826,666.753967 542.463684,658.789490 544.495483,650.795532 
	C545.014832,648.752197 543.556458,646.767456 541.114136,646.716492 
	C538.102356,646.653687 538.502686,648.898926 538.513611,650.986267 
	C538.523193,652.826843 538.457825,654.552490 539.275574,656.320068 
	C540.723450,659.450012 541.105286,662.696289 539.154419,665.830566 
	C538.697632,666.564453 538.132507,667.449768 538.687012,668.118958 
	C541.002380,670.913086 539.111694,672.767700 537.277161,674.467651 
	C533.958557,677.542725 534.012817,680.540894 536.584045,684.131836 
	C538.305115,686.535583 539.494873,689.351562 540.708984,692.078125 
	C542.126892,695.262390 542.828247,699.125793 540.090820,701.385681 
	C537.321045,703.672241 533.517700,702.668091 529.901428,700.826965 
	C532.569946,697.130066 529.240295,693.981873 529.224060,690.453918 
	C529.215942,688.704590 526.937439,688.007568 525.360474,687.799683 
	C523.505432,687.555176 522.908997,689.359558 522.601440,690.780334 
	C522.217285,692.554749 522.366089,694.441345 522.018555,696.227661 
	C521.336975,699.730713 518.836975,700.486877 515.641479,700.300964 
	C512.299072,700.106506 512.708374,697.697693 512.701843,695.597107 
	C512.659729,682.102783 512.698486,668.608093 512.632812,655.113892 
	C512.620056,652.499634 513.755005,649.004211 511.496094,647.497559 
	C507.241058,644.659912 504.977234,639.397705 499.526764,638.109009 
	C492.836304,636.527222 488.929565,629.706482 490.585602,622.809265 
	C491.059387,620.835876 490.805115,620.305908 487.651093,617.434875 
	C487.150665,622.424744 486.747894,626.944763 486.225403,631.450806 
	C485.939667,633.915039 487.350433,637.264771 483.788483,638.291382 
	C480.466858,639.248657 478.116241,637.040466 476.098877,634.713318 
	C475.257355,633.742615 474.628937,632.587219 473.478424,630.887756 
	C472.713715,636.891296 469.071350,637.716187 464.475281,637.434143 
	C460.834442,637.210693 457.163208,637.538208 453.506775,637.499512 
	C446.992981,637.430542 446.344696,636.890381 445.632935,630.583801 
	C444.227417,618.130310 445.139740,605.618591 444.784729,593.137939 
	C444.729584,591.199097 445.308655,589.137939 443.508118,586.684326 
	C440.125122,589.908447 436.161774,592.037170 436.154938,597.767761 
	C436.141449,609.087830 435.382111,620.408569 435.438293,631.726501 
	C435.463104,636.729431 433.087646,637.406494 429.011780,637.559448 
	C424.705658,637.721069 423.142090,635.857544 422.583618,631.837280 
	C421.103210,621.180115 423.010651,610.553040 422.557220,599.911133 
	C422.386566,595.906006 422.736023,592.148010 418.549713,589.422974 
	C416.901001,588.349792 414.661652,585.754517 416.081818,582.936584 
	C417.469727,580.182800 418.771332,577.070068 422.686798,576.985840 
	C425.347565,576.928589 428.143433,576.248962 430.642761,576.842346 
	C439.251038,578.885803 447.947510,577.676819 456.483459,578.289368 
	C461.685760,578.662537 467.930298,575.436279 472.795746,580.743164 
	C474.734283,578.031982 477.161682,577.475769 480.197449,577.552490 
	C485.218781,577.679199 490.164337,578.065308 495.002136,579.359802 
	C497.928101,580.142761 500.485474,580.912720 499.951477,585.307739 
	C499.515411,588.897156 503.632935,589.974426 506.075470,592.220276 
	C508.602966,590.286621 507.790466,587.580383 507.727051,585.298584 
	C507.611725,581.147400 510.267670,578.496094 513.411621,578.173828 
	C519.623352,577.536987 525.824951,576.096375 532.261353,577.370239 
	C536.775208,578.263611 538.445679,580.261719 538.401855,584.705078 
	C538.254578,599.665283 538.283203,614.627747 538.334839,629.588989 
	C538.341919,631.655884 537.690857,633.903687 539.436829,636.161194 
	C542.235046,633.491089 543.581604,629.803223 542.754517,626.848022 
	C540.252930,617.911072 543.432922,609.728210 545.143921,601.382385 
	C545.805176,598.156982 547.432495,595.495667 542.433899,595.076782 
	C541.514771,594.999756 540.593140,594.138672 540.876526,593.453308 
	C542.369324,589.842285 542.325439,585.333557 545.523193,582.742615 
	C549.817932,579.262817 554.630310,576.415588 560.634888,578.060608 
	C562.018494,578.439697 561.861572,579.900330 562.466309,581.289673 
M475.324463,604.444336 
	C474.033295,598.872131 475.094391,593.044556 474.100372,586.030518 
	C471.035187,590.243774 467.694580,590.456604 464.375458,590.691467 
	C459.793121,591.015686 458.136658,593.532837 458.276672,597.992737 
	C458.414185,602.372803 460.637726,603.868408 464.637482,603.715088 
	C465.625488,603.677246 466.652924,603.758362 467.502960,604.993896 
	C466.687805,606.892883 469.638611,610.284485 465.268921,611.173523 
	C459.487152,612.349915 458.168488,616.285400 458.174835,621.507629 
	C458.178802,624.780457 458.993164,626.103760 462.505981,625.398254 
	C466.467072,624.602722 470.521912,624.208374 475.067902,627.126099 
	C475.067902,619.202820 475.067902,612.245422 475.324463,604.444336 
M505.289642,628.527344 
	C505.444031,630.438782 505.266541,632.550354 509.660858,633.553284 
	C504.717163,622.527893 509.711212,611.583069 506.563721,600.024353 
	C504.994232,602.776489 504.264496,604.462402 503.183685,605.880737 
	C498.593140,611.904846 498.646729,618.867676 503.395721,624.806519 
	C504.109497,625.699036 504.583344,626.783447 505.289642,628.527344 
M560.264282,636.716553 
	C560.738037,635.494324 561.541382,634.293457 561.622009,633.045898 
	C561.841309,629.653198 559.804504,626.953247 556.990479,626.116638 
	C554.458252,625.363708 552.100403,627.546021 550.415466,629.726440 
	C548.766602,631.860168 550.506042,634.165771 550.354858,636.088013 
	C548.844421,637.884949 545.628845,637.840088 546.372681,640.941772 
	C546.713013,642.360840 547.749329,643.215454 549.143433,643.523071 
	C551.718201,644.091125 553.239441,642.589111 554.385071,640.606201 
	C555.584351,638.530396 557.623962,637.865295 560.264282,636.716553 
M519.821777,633.461853 
	C516.931091,635.542908 518.172729,637.487061 519.838196,639.659973 
	C522.038696,642.531067 524.306396,645.275269 528.367493,644.487854 
	C530.541138,644.066345 532.030273,638.830627 530.301880,637.993713 
	C527.071411,636.429504 524.581604,633.217468 519.821777,633.461853 
M519.616150,618.135010 
	C517.981567,620.027466 517.957642,621.974976 519.619507,623.808472 
	C520.430176,624.702820 521.627197,625.075134 522.709167,624.315552 
	C524.361572,623.155518 523.711792,621.350952 523.588623,619.812927 
	C523.424622,617.764282 522.232666,616.963867 519.616150,618.135010 
M523.924438,658.714722 
	C521.631775,660.911682 521.846252,663.097046 524.154541,665.047668 
	C525.192993,665.925110 526.545654,665.708923 527.039612,664.379517 
	C528.010254,661.767151 527.723206,659.484009 523.924438,658.714722 
M489.672302,592.816833 
	C487.019165,594.512939 486.772461,596.681458 488.197723,599.565735 
	C491.690033,597.894348 493.127655,596.018066 489.672302,592.816833 
z"/>
<path fill="#b39653" opacity="1.000000" stroke="none" 
	d="
M309.035553,652.014954 
	C305.328705,646.324646 303.035278,639.869385 301.963470,634.167419 
	C300.785065,627.898193 297.694611,621.124023 300.616425,613.911804 
	C301.677032,611.293762 300.253052,606.817749 298.345276,603.603577 
	C295.983276,599.624023 294.497559,595.864258 296.644409,590.933472 
	C297.807800,588.261475 296.784943,584.014709 294.787598,581.913391 
	C292.424927,579.427734 293.112946,576.229004 291.305389,573.851501 
	C290.640045,572.976318 291.040497,571.917725 292.002014,571.273438 
	C292.818481,570.726318 293.616455,570.986633 294.271912,571.576355 
	C297.718201,574.676941 302.719208,576.730164 301.666534,582.864197 
	C301.528595,583.667908 302.168121,584.877136 302.824707,585.502625 
	C308.848022,591.240479 312.982422,598.210449 316.697449,605.570984 
	C318.895386,609.925842 323.114105,613.572144 324.241669,618.082642 
	C325.919647,624.795044 331.553650,629.134827 333.087036,635.655396 
	C333.388245,636.936401 334.337006,638.674255 333.832184,639.432922 
	C331.286774,643.258057 333.009674,646.369202 335.596252,648.721680 
	C339.480865,652.254761 337.147003,657.228271 339.182465,661.244873 
	C340.148224,663.150574 340.460327,665.923828 341.950836,667.423645 
	C348.680389,674.195007 351.401886,682.779724 353.990204,691.571960 
	C354.860138,694.527100 357.251190,696.289917 360.751282,696.151733 
	C365.369659,695.969360 366.937683,698.322754 364.991241,702.627991 
	C364.185577,704.410034 364.491608,705.796204 365.228912,707.348267 
	C366.085663,709.151917 367.020782,710.972473 365.136566,713.792297 
	C361.626099,708.433411 354.770905,714.386597 350.998444,708.977600 
	C344.277496,711.838684 338.107697,702.930054 331.152924,708.086792 
	C329.918732,709.001770 327.743561,708.523499 326.362366,707.554199 
	C322.175476,704.616089 317.508911,704.137390 312.611908,704.307861 
	C309.420349,704.419006 306.215088,704.339966 304.097595,701.283936 
	C303.923889,701.033203 303.538666,700.753296 303.269348,700.770081 
	C294.634674,701.308899 288.409515,696.076538 281.595764,692.037964 
	C278.724823,690.336243 275.847198,688.725220 273.293701,686.577820 
	C269.348846,683.260193 265.394104,679.995728 259.930664,679.531860 
	C258.416168,679.403320 257.534882,678.199402 257.128845,676.953796 
	C256.316711,674.462280 254.857498,673.046570 252.185440,672.770020 
	C250.994873,672.646729 250.224258,671.786438 249.705307,670.582397 
	C247.297974,664.997559 243.974060,660.643982 237.543274,658.818054 
	C234.537384,657.964661 231.961639,654.695435 230.908722,651.648438 
	C228.636002,645.071594 224.346909,639.643738 221.489334,633.434631 
	C220.804382,631.946411 220.044479,630.195862 218.791672,629.321655 
	C215.078323,626.730408 213.084686,623.557800 213.587708,618.913330 
	C213.763321,617.291809 212.606735,616.150879 211.378601,615.205139 
	C209.431076,613.705444 208.559280,611.545410 207.780289,609.333679 
	C206.496552,605.688782 208.498978,603.061829 211.431320,602.262695 
	C214.951874,601.303284 216.434921,605.296936 216.034317,607.290710 
	C215.132629,611.778381 218.146988,613.257202 220.595642,615.259033 
	C223.594879,617.711060 225.871353,620.726196 228.355743,623.640991 
	C232.188843,628.138245 235.095322,633.506897 242.200790,634.796021 
	C246.955246,635.658569 251.395966,638.667236 254.400162,643.554810 
	C256.056366,646.249207 259.516693,647.677124 263.741882,648.157227 
	C270.729980,648.951294 279.592133,647.325073 283.268829,656.711853 
	C284.164490,658.998535 286.175140,660.820984 289.060333,660.853821 
	C290.688110,660.872314 291.809784,661.563782 292.772736,662.932983 
	C294.391937,665.235352 296.780151,666.271606 299.588318,666.497070 
	C300.535004,666.573059 302.141632,666.870483 302.271088,667.370850 
	C303.504028,672.136963 310.184052,670.236450 311.512970,675.232849 
	C311.984985,677.007690 319.636841,676.857544 320.889771,675.476074 
	C312.540680,670.024414 312.843964,660.190857 309.035553,652.014954 
z"/>
<path fill="#b39653" opacity="1.000000" stroke="none" 
	d="
M820.472717,690.912720 
	C810.753113,693.062805 801.228088,694.703308 792.710938,699.500549 
	C791.734436,700.050598 790.854370,699.837524 789.883789,699.902893 
	C783.036316,700.363892 776.219788,701.084656 769.703003,703.453003 
	C765.781006,704.878418 761.487366,704.013245 757.514343,705.803650 
	C754.621033,707.107544 751.588379,707.348816 748.833740,709.795898 
	C745.464905,712.788757 740.305359,712.250183 735.871460,712.183350 
	C732.679688,712.135193 733.128235,709.793396 734.760132,708.023193 
	C736.668884,705.952820 737.943970,704.157043 736.743225,700.984192 
	C735.725891,698.295776 737.610168,697.206543 740.098755,698.368958 
	C742.386597,699.437500 744.484070,699.099182 744.975037,696.856689 
	C745.764099,693.252686 748.501099,691.427429 750.606750,688.961731 
	C753.507935,685.564575 755.994019,682.364014 755.742859,677.085693 
	C755.582336,673.712158 757.137451,669.569092 760.829956,666.895813 
	C764.469238,664.261230 764.270142,659.575867 764.475098,655.529236 
	C764.555542,653.939758 763.520691,652.102051 765.156555,650.998169 
	C768.567932,648.695923 768.658386,645.378723 768.874084,641.777588 
	C769.111633,637.812561 769.879333,633.885925 773.271729,631.020935 
	C774.494202,629.988586 775.879456,628.440979 775.604675,626.753967 
	C774.036621,617.127136 781.378235,611.478943 785.372498,604.341675 
	C785.531738,604.057007 785.929077,603.862671 785.995667,603.575317 
	C788.030273,594.804260 791.805847,587.181702 799.872131,582.359314 
	C800.240417,576.394409 803.966003,572.076782 807.134949,567.474365 
	C808.114929,566.051147 809.070007,564.558044 811.063599,565.143433 
	C813.006592,565.714050 813.181702,567.475708 813.276489,569.197083 
	C813.478638,572.864929 812.789612,576.237122 809.680420,578.562622 
	C807.507385,580.187866 807.008850,581.872681 807.828369,584.580627 
	C808.842773,587.932739 808.163818,591.205750 806.875427,594.693970 
	C804.548401,600.993774 804.633728,607.870239 803.960266,614.533752 
	C803.333313,620.737732 803.186768,627.147339 800.739319,632.865540 
	C797.118225,641.325562 794.849060,650.353027 790.165466,658.353699 
	C787.496643,662.912659 784.661316,667.374023 781.923035,671.892639 
	C781.017944,673.386169 779.192017,675.173401 781.532776,676.539490 
	C783.542725,677.712524 784.769653,676.501343 786.048767,674.317505 
	C788.183838,670.672241 791.008911,667.941406 796.165649,667.584717 
	C800.020874,667.318054 804.306885,665.133423 807.318970,662.543945 
	C813.319092,657.385681 820.723145,655.102417 827.477844,651.606567 
	C832.022888,649.254456 836.610840,647.060364 840.831604,644.148682 
	C841.653381,643.581909 842.429016,642.725708 843.335938,642.539734 
	C851.449707,640.876648 856.181396,634.382996 862.138977,629.624512 
	C863.939758,628.186218 865.999939,627.010803 868.077087,625.991760 
	C876.058044,622.075745 881.736938,616.281311 884.081299,607.470276 
	C885.010925,603.976440 886.974243,602.254883 890.395813,605.145996 
	C892.018677,603.930725 891.442261,602.473572 891.067810,601.014526 
	C890.675110,599.484253 890.472229,597.695068 892.480225,597.417542 
	C894.670532,597.114807 895.067261,599.003967 895.301514,600.733215 
	C895.967407,605.649536 892.832092,608.328979 889.319275,610.737061 
	C892.623901,615.700134 887.711365,618.630920 886.224792,622.141663 
	C885.190613,624.584290 883.119446,626.338989 885.601196,629.045471 
	C881.161316,631.241211 877.707581,633.309631 878.322510,638.572693 
	C878.487000,639.980164 877.302429,641.986389 875.743530,642.624451 
	C871.728760,644.267578 870.506348,647.936035 868.829468,651.318604 
	C867.743408,653.509460 867.190002,656.188416 863.820679,656.017700 
	C863.315857,655.992126 862.454529,656.607483 862.297058,657.099121 
	C860.468018,662.807434 854.438904,663.672485 850.626343,667.080078 
	C848.395386,669.074036 846.408081,670.675903 846.274597,674.160767 
	C843.866150,673.940063 841.384705,673.439209 840.273376,676.565002 
	C839.592041,678.481567 837.240173,678.439331 835.603760,679.119629 
	C831.201416,680.949646 827.179138,683.084351 825.527710,688.007507 
	C824.783264,690.227112 823.065308,691.019470 820.472717,690.912720 
z"/>
<path fill="#b39653" opacity="1.000000" stroke="none" 
	d="
M573.368164,221.969086 
	C580.923218,223.120667 588.271362,222.285553 595.409912,225.351578 
	C599.014465,226.899750 603.847900,227.619965 608.257874,226.951874 
	C611.759094,226.421463 614.841248,226.623489 617.192017,229.772476 
	C619.808594,233.277649 624.345032,231.906204 627.897522,233.670746 
	C633.724243,236.564850 640.091736,238.987259 646.453064,240.565399 
	C655.012756,242.688919 661.259399,249.421982 669.938477,251.120728 
	C675.124756,252.135818 677.216187,254.450241 678.811279,259.208282 
	C681.035217,258.581696 683.227417,258.329407 684.371704,261.233917 
	C685.007019,262.846588 686.513000,263.673401 688.377563,263.763184 
	C689.164490,263.801056 690.318909,264.002869 690.650024,264.536957 
	C695.413757,272.222321 704.440430,274.353699 710.786682,280.082428 
	C717.360107,286.016205 723.528564,292.170624 729.340759,298.851379 
	C733.991394,304.196960 736.265991,311.754333 743.734802,314.658234 
	C745.319214,315.274292 746.022888,317.341797 746.206909,319.321198 
	C746.672791,324.330078 749.198792,328.521210 752.480652,332.038116 
	C757.066467,336.952423 760.678101,342.283539 762.237305,348.868439 
	C762.621765,350.492249 763.880188,351.290955 764.997681,352.276489 
	C769.369141,356.131775 772.457397,360.416595 772.585022,366.772614 
	C772.669861,370.997192 774.617554,375.125885 777.536926,378.444427 
	C778.487244,379.524658 779.011841,380.444763 778.928406,381.933563 
	C778.527527,389.078217 782.696716,394.835114 785.004028,401.150818 
	C785.567627,402.693634 787.013489,404.170746 786.302551,405.783905 
	C785.050354,408.625000 784.531616,411.144897 787.119263,413.488983 
	C787.327881,413.677979 787.495239,414.200256 787.384521,414.412415 
	C783.431458,421.984528 790.317627,427.331696 791.463745,433.867340 
	C792.551147,440.068085 790.581055,446.043427 791.125793,452.158752 
	C791.312988,454.260864 790.849670,456.229614 792.141785,458.306274 
	C793.578613,460.615540 793.583252,463.561981 792.681885,466.088409 
	C790.578674,471.983429 791.077881,477.812592 792.175476,483.775757 
	C792.819580,487.275452 792.250000,490.765961 790.464478,493.934174 
	C789.729675,495.238159 788.877136,496.761047 787.022278,495.947876 
	C785.522034,495.290161 785.483948,493.656799 785.987793,492.454742 
	C789.016541,485.229401 787.374939,477.685089 787.576599,470.284149 
	C787.643066,467.845825 788.088074,465.811218 790.272949,464.034973 
	C788.233459,462.466583 787.447144,460.696411 787.633362,458.365814 
	C787.882996,455.241638 788.189453,452.034241 786.080811,449.239746 
	C785.730469,448.775513 785.591675,447.855377 785.797363,447.313995 
	C787.703491,442.297455 786.448669,437.783173 783.967163,433.322205 
	C782.918213,431.436523 785.217712,430.035217 785.289490,428.251709 
	C780.641357,425.193085 780.682739,420.227234 780.651489,415.706879 
	C780.623535,411.660431 781.785583,406.426941 779.874329,403.874298 
	C776.547729,399.431519 776.265869,394.553375 774.913757,389.838318 
	C772.735657,382.242401 767.122009,376.011292 766.420776,367.859314 
	C766.284302,366.272491 765.079590,365.278900 763.818237,364.367981 
	C758.802917,360.745911 755.722412,356.609894 755.866333,349.610077 
	C755.940247,346.016907 752.017761,342.251404 748.822266,339.333649 
	C745.976562,336.735229 741.924561,334.805145 743.463928,329.706604 
	C743.616516,329.201111 743.268311,328.144135 742.849976,327.927429 
	C737.759766,325.290771 736.971924,318.001526 730.646729,316.677368 
	C730.016724,316.545502 729.155457,315.557922 729.107605,314.914948 
	C728.712219,309.601501 725.120544,307.219574 720.814392,305.283783 
	C719.661804,304.765564 718.527527,303.776093 717.846191,302.708527 
	C712.651428,294.568939 704.271057,289.809204 697.611572,283.252655 
	C694.318298,280.010345 691.166138,276.249207 687.028076,274.820557 
	C679.738403,272.303802 675.929199,264.037384 668.021790,263.429962 
	C660.056274,262.818054 654.817017,257.719604 648.786682,253.735443 
	C647.589783,252.944702 645.998840,252.486557 644.554688,252.388168 
	C641.445618,252.176361 638.969788,251.543976 636.960999,248.630081 
	C634.420471,244.944992 629.693726,246.574493 626.036316,245.463684 
	C623.996155,244.844040 622.002930,244.474548 620.092407,243.322556 
	C614.918152,240.202606 609.103577,239.059723 603.365723,237.426086 
	C599.040466,236.194641 594.513977,236.984085 590.125916,234.907196 
	C585.252869,232.600784 579.072205,233.377274 573.434998,233.817886 
	C571.077942,234.002136 568.789612,234.280396 566.626770,233.051895 
	C565.100159,232.184753 563.406250,232.072449 561.762756,232.313385 
	C550.924622,233.902191 540.192688,232.779358 529.468445,231.204178 
	C524.354736,230.453064 520.411865,233.968353 515.799988,235.131851 
	C511.035400,236.333862 506.442139,237.729507 501.754517,235.573029 
	C498.594818,234.119446 496.988892,237.080353 495.427917,238.175262 
	C492.729492,240.067993 489.986145,240.851257 487.139313,240.627350 
	C483.302368,240.325592 480.474609,241.903198 477.738831,244.059830 
	C475.524109,245.805725 473.029785,246.701416 470.290009,246.286392 
	C464.901367,245.470139 460.977692,248.184738 457.103333,251.268265 
	C454.806335,253.096405 452.674561,254.054596 449.162415,253.901184 
	C444.458313,253.695724 439.123627,255.433090 436.420532,260.253601 
	C434.027313,264.521545 429.975189,266.122711 425.888733,267.047729 
	C419.345947,268.528778 414.044373,271.377075 409.694366,276.569855 
	C407.206665,279.539551 404.061523,282.191803 400.720337,284.145386 
	C397.582703,285.979889 394.892120,287.844604 392.487274,290.717590 
	C385.925720,298.556396 377.399994,304.449005 370.352875,311.794342 
	C365.945648,316.388092 362.369965,321.872833 358.974609,327.303802 
	C357.341705,329.915680 354.993347,331.710419 353.126343,333.998199 
	C349.911194,337.938110 348.714813,342.770508 346.175781,346.962128 
	C345.043365,348.831665 343.968506,350.592560 342.131439,351.910095 
	C340.267792,353.246674 339.428650,355.322876 339.661499,357.598969 
	C340.065613,361.548950 338.407227,364.265747 335.053589,366.133606 
	C334.479553,366.453308 333.450989,366.849152 333.459198,367.189880 
	C333.612671,373.547852 326.620087,376.785034 326.612671,383.169739 
	C326.610138,385.360962 325.445068,387.644562 324.457031,389.717224 
	C323.217529,392.317474 322.391510,394.511871 323.839600,397.572113 
	C325.096283,400.227661 319.507935,405.809265 316.452972,405.390503 
	C314.040405,405.059784 313.765869,402.922150 314.871063,401.703613 
	C317.315125,399.008942 317.457520,396.364807 316.701904,393.010437 
	C316.363403,391.507751 317.459564,389.429779 318.412048,387.936523 
	C321.056519,383.790466 322.468170,379.454529 321.889191,374.484009 
	C321.662170,372.535400 322.949524,371.189392 324.809601,371.100922 
	C327.805084,370.958466 328.218964,368.512634 327.871460,366.876495 
	C326.026581,358.189270 330.775513,353.108948 337.113007,348.722229 
	C337.377991,348.538818 337.570831,348.251068 338.033539,347.762482 
	C336.731262,345.148041 336.758728,342.636902 339.583649,340.631500 
	C340.707214,339.833832 340.481201,338.213531 340.855316,336.954041 
	C341.853516,333.593384 342.908325,330.142975 347.165192,329.517609 
	C348.304016,329.350281 349.109619,328.616791 349.367554,327.705597 
	C351.034119,321.819092 354.137848,316.978943 359.070099,313.271271 
	C360.259094,312.377472 360.660553,310.828674 360.765228,309.239380 
	C360.908875,307.058990 362.265137,305.344269 364.085236,304.534271 
	C371.103638,301.410828 375.775696,296.248749 378.358704,289.089630 
	C378.414032,288.936371 378.496094,288.737244 378.623016,288.673218 
	C385.443542,285.234375 388.190338,276.849518 395.857361,274.460876 
	C397.838196,273.843750 399.476044,273.108032 400.159576,270.808380 
	C400.812378,268.612152 402.847412,266.894440 404.746246,266.487488 
	C411.024353,265.142029 413.743500,259.385071 418.491150,256.240875 
	C422.213898,253.775452 426.972992,254.162079 430.908722,251.792953 
	C434.991852,249.335098 439.640198,247.819275 444.027954,245.861420 
	C444.783142,245.524445 445.855530,245.208282 446.129333,244.592560 
	C448.170532,240.002121 451.429993,238.422394 456.499481,238.928192 
	C459.259888,239.203613 461.837891,237.344574 463.593781,234.693100 
	C464.583588,233.198456 466.464966,231.929337 468.241150,232.027664 
	C475.617615,232.436050 481.281158,227.575104 487.963043,225.979080 
	C495.642090,224.144897 503.397736,222.817154 511.347626,222.679321 
	C519.324524,222.541061 527.297913,222.111923 535.268311,221.718964 
	C539.767029,221.497162 544.340393,222.489090 548.682800,219.858734 
	C550.172302,218.956451 552.835083,219.187042 554.521484,221.325226 
	C556.072266,223.291473 558.629456,222.925186 560.603088,222.436035 
	C564.757751,221.406296 568.851807,221.694061 573.368164,221.969086 
z"/>
<path fill="#b39653" opacity="1.000000" stroke="none" 
	d="
M750.870483,663.283203 
	C749.579224,672.532593 745.489624,680.237488 741.027100,687.950134 
	C736.215759,696.265503 731.161743,704.262146 723.761414,710.513123 
	C721.566772,712.366882 719.716125,714.448120 715.990051,713.926819 
	C713.647705,713.599060 711.481018,716.322998 709.699585,718.593323 
	C710.891541,721.333496 713.757141,722.290833 715.807434,722.083923 
	C720.962280,721.563721 726.382568,721.725220 731.121521,719.044617 
	C734.172607,717.318665 736.772156,715.992310 740.784790,717.499817 
	C743.872498,718.659790 747.962585,717.623596 751.002502,715.240234 
	C754.854980,712.219604 758.900146,711.814331 762.992615,714.510681 
	C764.857727,715.739441 766.774109,715.084900 768.570923,715.411316 
	C774.942261,716.568726 781.062012,713.013794 787.343384,714.825562 
	C789.874329,715.555481 790.860657,713.498230 792.281006,712.216248 
	C794.776489,709.963806 796.851562,708.037537 801.011169,709.775269 
	C804.196167,711.105774 807.473206,708.162109 809.950012,705.936523 
	C811.703979,704.360535 813.395142,702.831055 815.512695,701.834351 
	C819.055969,700.166382 821.943115,698.051697 823.639465,694.205078 
	C825.598633,689.762634 830.051086,688.535339 834.384033,687.973328 
	C836.642395,687.680359 839.016785,688.585693 837.156494,691.809265 
	C836.727661,692.552368 836.304199,692.881470 837.069397,693.821228 
	C839.148804,696.375000 837.556335,698.246277 835.257690,699.151978 
	C830.931946,700.856384 828.718628,704.308167 826.228455,707.925964 
	C823.608887,711.731812 821.690613,716.689026 815.966125,717.379578 
	C814.603333,717.543945 813.630371,718.709961 813.419128,720.156006 
	C812.679565,725.216980 808.976440,726.807678 804.684143,727.315552 
	C800.239258,727.841614 797.825867,731.621216 794.060547,733.367493 
	C783.333252,738.342529 772.037231,741.992310 761.609131,747.705444 
	C758.159973,749.595093 753.527283,748.804199 749.527405,749.060303 
	C744.132446,749.405884 738.713989,748.858276 733.416687,750.572571 
	C732.396729,750.902710 731.018677,750.747620 729.993530,750.342041 
	C721.679321,747.052185 712.970581,745.236633 704.275635,743.403442 
	C700.689331,742.647339 697.055786,742.038025 693.311646,742.875122 
	C691.935486,743.182739 690.283630,742.938232 688.913818,742.479126 
	C681.787598,740.090881 674.374084,739.251831 667.032410,737.932861 
	C663.522766,737.302429 660.958008,734.352722 656.627075,734.262634 
	C651.914124,734.164490 647.125183,732.353455 641.536682,733.448792 
	C642.719849,730.348511 642.403442,727.982849 641.830017,725.727295 
	C644.239807,724.210510 646.802612,724.224243 648.866455,724.807556 
	C654.317322,726.348206 658.880798,723.412964 663.796021,722.436401 
	C666.735168,721.852478 667.517090,718.323425 671.045715,717.153442 
	C677.540283,715.000122 684.824829,713.721191 689.824402,707.958679 
	C692.169922,705.255127 695.318726,703.258972 698.017456,700.846008 
	C699.056091,699.917297 700.188965,699.195496 700.122559,697.236877 
	C699.979553,693.015381 702.671326,691.771973 706.202820,692.029053 
	C711.285095,684.718567 715.391663,676.477905 724.265198,672.506042 
	C724.564636,672.372070 725.118713,672.285217 725.138855,672.124268 
	C726.008667,665.196777 733.386841,664.454285 736.729980,659.893066 
	C740.969360,654.108887 746.829834,650.553894 753.322998,647.873413 
	C754.422791,647.419373 755.605652,646.863220 756.525391,647.986206 
	C757.708679,649.430908 757.822876,651.358582 756.642761,652.601440 
	C753.795776,655.599915 753.214233,659.707031 750.870483,663.283203 
z"/>
<path fill="#b39653" opacity="1.000000" stroke="none" 
	d="
M883.039429,594.753784 
	C879.241211,599.417664 874.672180,602.682190 870.362915,606.297058 
	C865.565918,610.321045 860.717651,614.069031 855.309509,617.041931 
	C848.032898,621.041870 842.108887,626.940369 834.739868,630.913025 
	C831.331482,632.750549 828.112793,635.947388 825.169922,638.602600 
	C821.698303,641.734802 817.361206,643.492065 814.128906,646.839905 
	C813.042542,647.965088 811.623657,648.673462 810.851624,650.276001 
	C809.840637,652.374695 807.920471,653.544373 805.527649,653.187866 
	C803.124390,652.829651 801.869568,650.976074 801.123840,648.858398 
	C799.571167,644.449585 802.117188,639.942932 807.242432,637.850769 
	C812.073853,635.878540 814.243652,631.161682 812.693115,626.107910 
	C811.123840,620.993103 814.833557,616.943665 815.581421,612.269470 
	C816.862305,604.263428 818.409668,596.380005 818.282959,588.142883 
	C818.213562,583.631409 817.095276,578.877930 819.968689,574.204834 
	C822.658264,569.830688 821.101196,564.206360 821.385254,559.161743 
	C821.560242,556.054871 821.471802,553.090576 822.395569,549.998474 
	C823.177979,547.379761 822.984741,544.415222 822.007446,541.637024 
	C821.291016,539.600037 821.526306,537.604797 823.519531,536.325256 
	C826.991760,534.096313 826.648499,530.661072 825.241882,527.948364 
	C823.528625,524.644104 824.151062,521.905518 826.204529,519.720825 
	C829.915100,515.772949 831.709961,510.098022 830.987854,506.105682 
	C829.973633,500.498077 833.414307,497.676239 834.574890,493.075867 
	C838.522949,496.003174 838.558289,499.539062 837.298035,503.084534 
	C836.369934,505.695374 836.440918,507.487823 839.015320,508.945404 
	C842.671326,511.015350 841.585938,514.895142 841.015503,517.537048 
	C839.802979,523.153259 842.054077,527.901306 843.550415,532.795898 
	C845.646423,539.652100 847.364990,546.411499 846.786438,553.708313 
	C846.516602,557.110413 848.424500,560.376770 848.533813,563.954651 
	C848.623962,566.905151 848.428467,569.675415 846.958496,572.088074 
	C845.000610,575.301514 843.903442,578.289673 846.442993,581.675659 
	C847.091858,582.540771 846.984741,583.808044 846.169678,584.442871 
	C842.717285,587.131531 843.903503,591.588379 842.034973,594.886292 
	C841.094360,596.546265 842.315491,597.911560 843.796814,598.400269 
	C845.639404,599.008118 846.615845,597.931458 846.574036,596.020203 
	C846.452209,590.443970 852.513489,589.808044 854.702576,585.959717 
	C855.587341,584.404358 856.867615,583.276978 856.833801,581.242432 
	C856.816101,580.178711 857.241272,578.668884 858.011780,578.102417 
	C862.786865,574.591797 865.212524,568.488037 871.128601,566.276184 
	C872.658813,565.704102 873.368225,564.407227 874.028137,563.020081 
	C876.177429,558.502747 879.829163,555.251160 883.914673,552.728882 
	C890.115356,548.900696 892.527039,542.174255 896.876709,536.951965 
	C897.820618,535.818665 898.211609,534.157715 899.272827,533.200562 
	C905.143494,527.905579 906.726196,520.380432 909.715027,513.589844 
	C910.112122,512.687622 910.695312,511.551361 910.459045,510.735992 
	C908.485168,503.923004 916.546631,504.085938 917.368835,499.183197 
	C921.652649,505.441193 923.569580,511.161713 920.958740,518.209229 
	C919.719055,521.555725 919.712585,525.297607 917.527649,528.568115 
	C915.574402,531.492004 915.329163,535.048584 916.803223,538.494690 
	C917.504456,540.134033 917.728210,542.267090 916.326843,543.157959 
	C911.505676,546.222839 912.022217,551.865540 909.588196,556.043396 
	C905.377625,563.270691 900.877625,570.365051 897.212708,577.863953 
	C893.878784,584.685791 887.824951,588.903320 883.039429,594.753784 
z"/>
<path fill="#b39653" opacity="1.000000" stroke="none" 
	d="
M270.108582,503.679443 
	C269.430542,508.816254 272.028229,512.582764 274.270142,516.262390 
	C276.153381,519.353210 277.982330,522.162109 276.853058,525.943359 
	C276.666565,526.567810 276.342316,527.616760 276.609985,527.842163 
	C281.408997,531.883118 278.402496,536.849121 278.320862,541.454834 
	C278.317902,541.621277 278.265320,541.829102 278.342621,541.948547 
	C282.421753,548.251831 281.571686,555.572632 282.622131,562.504578 
	C283.470093,568.100464 283.999786,573.715393 282.277527,579.195679 
	C281.130920,582.844238 281.075073,586.026489 284.326324,588.546570 
	C286.365173,590.127014 286.662018,592.272278 285.960449,594.384827 
	C285.167114,596.773682 285.253540,599.063965 286.199066,601.189270 
	C288.041443,605.330383 287.985016,609.649414 287.346680,613.869690 
	C286.465149,619.697876 288.984039,624.544128 290.292114,629.874634 
	C291.776367,635.923096 295.829102,638.678894 299.512939,642.339355 
	C300.845245,643.663208 302.775818,654.376465 301.652039,655.542358 
	C299.453949,657.822693 296.610016,656.609070 295.562897,654.875366 
	C292.542786,649.875366 287.198578,648.865051 282.773590,646.269043 
	C279.535950,644.369568 278.283051,640.519470 274.597198,638.703857 
	C271.121307,636.991760 267.334473,635.348877 264.528351,632.353455 
	C263.533783,631.291870 262.200470,631.198181 260.816925,631.679138 
	C258.774933,632.388916 256.813782,631.670898 256.072052,629.944763 
	C252.568329,621.790833 244.469498,618.368530 237.819000,614.959961 
	C229.381577,610.635498 223.223663,604.375183 216.523193,598.356995 
	C214.293701,596.354553 213.493256,593.358643 212.058899,590.945007 
	C210.267242,587.930054 208.816696,585.299255 205.040482,584.324219 
	C205.621582,581.769653 204.899902,580.011536 203.262085,578.013428 
	C198.545761,572.259644 194.463806,565.739929 192.579254,558.676575 
	C191.284943,553.825439 190.158051,549.333252 186.959412,545.432678 
	C186.188797,544.492920 186.555206,543.160828 187.027542,542.068970 
	C187.593628,540.760315 187.889771,539.262085 186.993439,538.246704 
	C181.866379,532.438477 184.571640,524.783997 182.187210,518.256653 
	C180.828079,514.536133 182.445892,510.680664 187.544846,509.476135 
	C188.738403,512.728394 190.017395,515.818359 193.190445,517.735291 
	C194.600693,518.587219 195.040237,520.646301 194.893295,522.264954 
	C194.293411,528.873596 198.444580,532.304199 202.295181,537.027527 
	C208.089386,544.134888 215.616241,549.518066 220.786575,556.995483 
	C225.843613,564.309021 231.719238,570.754883 238.487152,576.464600 
	C239.336273,577.180908 239.846161,578.326538 240.429565,579.322266 
	C240.933273,580.182007 241.075562,581.464111 241.792007,581.956604 
	C250.440582,587.902039 252.125168,598.912842 259.516785,606.092041 
	C262.592468,604.592285 263.333801,602.928894 261.244720,599.585754 
	C256.810059,592.488831 255.494125,584.526245 255.907516,576.206421 
	C256.038391,573.572083 256.480103,570.467407 255.336121,568.362366 
	C253.299789,564.615356 254.128479,561.132690 255.186661,557.784912 
	C256.784515,552.729858 256.196960,547.146484 259.101288,542.421570 
	C259.547882,541.695068 259.482849,540.413391 259.210358,539.524597 
	C257.435883,533.736511 260.461914,529.270508 263.307312,524.856812 
	C264.219940,523.441162 264.529846,522.381592 264.126892,520.771301 
	C262.754486,515.286743 262.800964,509.656006 262.816101,504.053406 
	C262.821350,502.115723 262.741241,499.496765 265.329285,499.308044 
	C267.719849,499.133728 269.887299,500.348297 270.108582,503.679443 
z"/>
<path fill="#b39653" opacity="1.000000" stroke="none" 
	d="
M363.285706,684.860596 
	C360.171173,682.966980 359.878510,679.796143 358.392242,677.366211 
	C353.133270,668.768127 352.953064,656.592285 340.853760,653.039856 
	C345.232391,646.943176 351.421509,648.192932 355.474762,652.160767 
	C360.375061,656.957947 365.735352,661.000305 371.093658,665.189148 
	C374.233765,667.643799 378.216370,670.489502 378.550354,675.486023 
	C378.599701,676.224426 379.229187,677.436768 379.773834,677.550476 
	C385.584167,678.763489 387.722961,685.213928 393.244171,686.830688 
	C395.911682,687.611816 397.792755,689.297119 398.543365,692.227783 
	C399.836273,697.275696 404.475189,699.578613 407.795990,702.952026 
	C413.675629,708.924988 420.878937,713.105957 427.860199,717.573059 
	C428.947418,718.268677 430.536621,719.258911 431.470612,718.925903 
	C435.289185,717.564758 438.466278,719.347229 441.468964,720.856140 
	C446.111542,723.188965 450.615967,725.233398 456.026550,725.002747 
	C458.236847,724.908569 460.631958,725.949707 461.441254,728.391846 
	C459.040802,736.858215 450.896515,734.504700 445.417114,737.025208 
	C443.293396,738.002136 440.607574,737.811707 438.464172,739.348083 
	C437.605927,739.963196 436.031738,740.476135 435.211456,740.100586 
	C430.258209,737.833191 426.556458,740.208740 422.896149,743.014038 
	C421.818085,743.840210 420.523560,744.872742 419.295593,744.464172 
	C412.214874,742.108337 405.994690,745.169678 399.328369,746.685059 
	C394.200378,747.850708 389.020355,749.930542 383.337952,749.094971 
	C378.780975,748.424866 374.106812,748.991455 369.478912,750.095398 
	C364.219666,751.350098 358.918152,749.466248 353.648193,749.036560 
	C348.482056,748.615295 343.097900,749.342590 338.148071,747.465759 
	C333.111938,745.556152 327.581787,744.836487 322.877808,742.646484 
	C317.438721,740.114075 311.472473,739.083191 306.303650,736.054932 
	C303.468414,734.393799 300.320679,733.148132 299.265198,729.418152 
	C298.957733,728.331360 297.564331,727.217590 296.413055,726.761475 
	C291.271637,724.724487 288.108368,720.050354 283.381958,717.383484 
	C278.112610,714.410156 269.140411,697.928833 268.586456,691.651306 
	C274.298279,690.762817 276.376068,692.758484 277.068756,700.390442 
	C283.538605,698.309570 287.945770,700.884644 290.763245,706.800903 
	C291.206390,707.731445 292.441162,708.783813 293.402496,708.883118 
	C297.763000,709.333252 301.559052,712.113647 305.597931,712.554626 
	C314.356049,713.510925 322.754181,717.182007 331.390106,716.994629 
	C337.715271,716.857422 343.894470,717.775818 349.800415,718.768616 
	C361.854706,720.795044 373.956268,718.329834 385.872253,720.510437 
	C387.321869,720.775757 389.448639,720.948853 390.002014,721.898621 
	C392.868774,726.818359 396.877380,724.760803 401.650452,724.305176 
	C393.910370,718.185913 385.980560,713.943909 378.161682,709.690552 
	C374.576538,707.740295 373.709442,704.396057 372.007629,701.670410 
	C368.748383,696.450195 364.445831,691.608582 363.285706,684.860596 
z"/>
<path fill="#b39653" opacity="1.000000" stroke="none" 
	d="
M246.194565,569.348877 
	C244.365433,570.457947 242.303482,570.398499 242.162949,568.767334 
	C241.785934,564.392212 238.181000,563.010010 235.642883,560.615967 
	C233.116089,558.232605 231.745773,555.220337 231.043396,551.916992 
	C230.610565,549.881348 230.101471,547.786743 228.188980,546.888794 
	C221.667374,543.826782 218.766876,537.921570 216.015320,531.888794 
	C214.909592,529.464417 213.477432,527.640381 210.684052,527.169678 
	C209.454620,526.962524 208.589127,526.066284 208.127182,524.962646 
	C203.988876,515.076355 197.216721,506.657776 193.936737,496.065277 
	C191.726044,488.925903 190.894867,481.178101 187.144043,474.471924 
	C186.439896,473.212982 186.977249,471.876862 187.559433,470.638245 
	C188.064163,469.564392 188.624130,468.315430 187.863358,467.302307 
	C183.543304,461.549591 184.858597,454.354828 182.822189,448.018127 
	C181.423355,443.665344 181.351364,439.224915 182.697464,434.734741 
	C183.950348,430.555450 184.030609,426.058289 186.747772,422.291077 
	C189.451492,418.542542 187.550919,414.225647 187.236160,410.325836 
	C186.913452,406.327576 188.255035,403.183350 189.734482,399.879486 
	C190.285034,398.650024 191.230804,397.536133 192.798920,397.773071 
	C194.407043,398.016083 194.895752,399.452515 195.005554,400.751709 
	C195.494949,406.542847 196.157608,412.346649 196.145828,418.144623 
	C196.135422,423.270630 195.511627,428.280670 199.322067,432.586090 
	C200.474579,433.888306 201.224365,435.814880 201.517319,437.562958 
	C202.713608,444.701538 205.759628,451.280487 207.527771,458.237640 
	C207.686539,458.862396 207.962082,459.643707 208.443039,459.972809 
	C217.560852,466.211487 215.686264,477.102112 219.210190,485.688477 
	C220.348984,488.463226 222.560654,490.418060 224.303726,491.958405 
	C226.436951,493.843536 227.792114,496.215088 230.113785,498.687378 
	C233.433502,494.518799 233.021713,489.591980 234.024033,485.166779 
	C234.261444,484.118622 233.608932,482.776825 234.326874,481.782043 
	C238.435181,476.089600 240.616333,469.322754 243.266556,463.057159 
	C246.890289,454.490021 254.035767,447.900787 256.245514,438.973511 
	C257.570587,433.620239 261.377625,429.284027 261.460022,423.512756 
	C261.522247,419.153717 265.593048,417.649231 268.712708,416.149292 
	C270.738220,415.175415 271.612946,417.431030 270.915833,419.232758 
	C269.734253,422.286499 270.330322,425.064453 271.362701,427.963470 
	C272.274353,430.523560 271.804321,433.032074 269.708771,434.819763 
	C267.529083,436.679230 268.114380,438.418884 268.542175,440.932465 
	C269.297943,445.373291 271.239136,449.804016 267.466949,454.640167 
	C265.607422,457.024200 266.095428,461.896667 265.350525,465.634521 
	C264.925964,467.764801 265.090729,470.045929 263.386414,471.530670 
	C260.487213,474.056213 262.242554,477.486786 261.399597,480.429199 
	C259.691162,486.392853 257.819641,492.375336 255.950516,498.229889 
	C253.674591,505.358673 252.991776,512.330261 252.923431,519.587463 
	C252.907608,521.268433 252.524887,523.298401 251.150299,524.120544 
	C245.282761,527.629578 247.295898,533.046692 247.744186,537.902222 
	C247.954712,540.182373 247.916458,542.051697 246.811111,544.069275 
	C244.420059,548.433838 244.282654,552.972107 246.960083,557.231812 
	C249.579605,561.399475 246.342361,565.131409 246.194565,569.348877 
M230.131088,525.781799 
	C230.415924,528.389404 230.871429,530.940613 232.493881,533.111816 
	C232.300461,530.308044 233.554153,527.077698 230.131088,525.781799 
z"/>
<path fill="#b39653" opacity="1.000000" stroke="none" 
	d="
M916.325439,453.832825 
	C915.956787,455.189301 915.161682,456.487427 915.519958,457.046722 
	C918.799500,462.166626 915.453857,466.363342 914.101685,471.005859 
	C911.519836,479.870270 909.412598,488.804321 905.927185,497.464172 
	C904.413086,501.226013 901.486877,505.001129 901.295288,508.359619 
	C901.032227,512.970520 899.390503,516.260620 896.248596,518.090210 
	C890.894714,521.207764 888.926880,526.717224 885.386536,531.059937 
	C880.875305,536.593872 876.521057,542.179626 871.154907,546.981201 
	C868.895203,549.003113 869.170654,552.628784 867.297913,555.500122 
	C864.475281,559.827698 860.190369,561.903625 857.631409,565.794067 
	C855.495911,564.685425 856.480164,563.473938 856.548462,562.437500 
	C856.904480,557.039124 857.777954,551.832031 856.344910,546.215637 
	C855.331238,542.242676 857.028259,537.573853 856.915405,533.077942 
	C856.734436,525.871765 856.390137,518.826355 852.102234,512.808167 
	C850.550049,510.629578 852.630249,509.087189 851.916504,507.154419 
	C849.416138,500.383301 847.122375,493.534637 844.827393,486.689514 
	C843.941772,484.048065 842.648254,481.337799 842.646118,478.657990 
	C842.643555,475.338837 841.778564,472.923950 839.253784,470.860809 
	C838.599609,470.326324 837.930786,468.671783 838.234314,468.279907 
	C841.184448,464.472076 837.551147,461.792542 836.636719,458.766174 
	C835.479736,454.937042 834.872681,451.321960 835.463135,447.222351 
	C836.080200,442.938202 835.662720,438.128632 833.399658,434.477051 
	C830.967285,430.552216 829.491516,427.209839 830.839050,422.480743 
	C831.994141,418.426910 831.976196,414.038818 832.520874,409.427643 
	C836.883179,409.737061 837.628418,413.279053 838.102539,416.244934 
	C839.237549,423.345551 841.885498,429.467468 847.428772,434.212799 
	C849.383179,435.885956 851.111206,437.709930 849.530579,440.643860 
	C849.260376,441.145325 849.281311,442.363922 849.569580,442.523010 
	C854.987000,445.512512 853.714905,452.635956 858.459473,456.360504 
	C861.979980,459.124176 866.280945,463.349060 866.596436,467.219604 
	C867.217407,474.837463 871.886841,481.201172 871.868713,488.688538 
	C871.859436,492.536835 872.801636,495.452515 876.769714,497.257660 
	C876.727600,493.664032 878.044861,490.796539 880.749756,488.582581 
	C881.368103,488.076447 882.079712,487.327515 882.186462,486.607056 
	C883.511169,477.667236 887.519409,469.779144 891.208557,461.670685 
	C893.258667,457.164795 894.237122,452.118408 896.592957,447.620880 
	C897.743408,445.424561 898.583130,443.143463 900.325195,441.219879 
	C902.662415,438.639099 904.166260,435.667297 901.557068,433.295654 
	C901.510498,426.512360 908.367493,422.715607 906.657532,415.945190 
	C906.458862,415.158783 907.042419,413.979645 907.599609,413.233826 
	C909.345825,410.896454 909.812744,408.751587 908.367249,405.896637 
	C906.915283,403.028931 907.714417,399.679047 907.832520,396.537018 
	C907.884399,395.157837 908.445496,393.778809 910.048706,393.636353 
	C912.065918,393.457031 912.545349,395.097321 912.670959,396.603271 
	C912.849609,398.745880 912.595398,400.925323 912.784668,403.066223 
	C913.400940,410.038788 916.641296,416.177094 916.362122,423.895905 
	C916.082703,431.623779 916.867859,439.979553 917.265503,448.050354 
	C917.353027,449.826202 916.729858,451.637024 916.325439,453.832825 
z"/>
<path fill="#b39653" opacity="1.000000" stroke="none" 
	d="
M872.932983,307.825684 
	C870.913513,304.315308 871.532715,299.797760 867.521912,297.507416 
	C866.621948,296.993500 866.896729,295.685303 867.488953,294.781281 
	C868.166260,293.747223 869.138428,293.043549 870.404175,293.252289 
	C871.527466,293.437531 872.132507,294.333130 871.974670,295.445862 
	C871.723877,297.214508 872.605286,298.353699 873.936035,299.160980 
	C877.504822,301.325836 881.652466,303.090210 878.745850,308.600128 
	C878.368713,309.314972 879.050964,310.246216 879.858826,310.621643 
	C886.915466,313.901215 887.009460,321.650391 890.276306,327.294708 
	C892.857727,331.754730 895.308350,337.180695 895.169556,342.103088 
	C894.989685,348.487213 900.973328,353.198761 898.720703,359.822876 
	C898.302673,361.052185 900.526306,362.965668 900.795105,364.678802 
	C902.164734,373.407318 903.160828,382.161865 898.791260,390.468201 
	C898.485107,391.050232 897.859619,391.907440 898.055969,392.245453 
	C902.342102,399.622772 896.456116,406.179871 896.443848,413.184174 
	C896.435547,417.905701 892.790344,420.901031 890.772949,424.586517 
	C887.333191,430.870667 885.033264,437.557373 882.747742,444.223389 
	C881.481384,447.916809 883.870911,452.114624 881.511414,456.233978 
	C880.373230,458.221161 879.650635,460.228363 877.464355,461.222198 
	C878.158691,463.792328 880.931213,466.047058 877.678467,468.728577 
	C873.788879,466.431793 872.094360,462.388702 871.789917,458.600647 
	C871.520081,455.243713 870.048828,452.346252 869.780212,449.155701 
	C869.565491,446.605530 868.652161,444.675537 866.507507,443.348145 
	C864.988403,442.407928 864.452393,440.957397 863.810242,439.353424 
	C860.531921,431.164673 855.901428,423.858765 849.076599,418.100983 
	C848.701294,417.784363 848.247681,417.462708 848.055786,417.040955 
	C844.135620,408.424438 837.150391,401.980042 832.050781,394.246704 
	C829.692871,390.670990 826.527893,387.771118 824.497803,384.130707 
	C822.313782,380.214233 820.789368,375.884155 819.353027,371.608307 
	C817.625732,366.466827 815.818970,361.421661 812.330811,357.161133 
	C810.505920,354.932190 808.629456,352.826263 810.953674,349.697357 
	C812.625916,347.446136 810.686096,345.749969 809.600525,343.911102 
	C808.811951,342.575378 807.300659,341.216278 808.547119,339.398315 
	C809.294495,338.308350 810.443909,338.165558 811.674011,338.492584 
	C813.548523,338.990906 815.553162,339.927612 815.434265,341.935608 
	C815.231873,345.351746 817.306763,346.405090 819.710754,347.840210 
	C825.242798,351.142548 828.887878,356.482880 832.833008,361.346130 
	C836.596741,365.985809 840.880737,370.140411 845.303833,373.933990 
	C850.515015,378.403442 854.374878,384.003448 859.323181,388.634705 
	C860.041504,389.307068 860.715271,389.649719 861.465942,390.137939 
	C865.275940,392.615814 867.973267,395.832916 867.405762,400.783234 
	C867.094421,403.499451 867.830322,405.578430 871.495544,407.109070 
	C870.571655,402.324097 871.859680,398.144684 871.521423,393.975983 
	C871.117554,388.998932 869.819336,384.090149 873.374207,379.640381 
	C873.789673,379.120239 873.844543,377.797485 873.474121,377.241394 
	C867.943970,368.938965 874.823669,360.133118 872.420410,351.685822 
	C872.069885,350.453735 872.322388,348.396912 873.639038,347.532532 
	C877.773926,344.817963 876.835815,341.127411 876.063416,337.312103 
	C875.163147,332.865479 874.757690,328.410248 877.023560,324.171814 
	C877.862061,322.603149 878.243042,320.723877 877.125854,319.425110 
	C874.248047,316.079559 873.080383,312.290283 872.932983,307.825684 
z"/>
<path fill="#b39653" opacity="1.000000" stroke="none" 
	d="
M862.361267,343.208130 
	C862.931702,347.487885 864.786499,350.994812 865.121216,355.056152 
	C865.690247,361.960846 862.297180,367.457855 859.951843,374.542023 
	C857.733887,368.670380 851.747803,368.771973 848.814880,364.455475 
	C847.634888,362.718842 846.917419,360.533234 845.301208,358.880127 
	C840.165100,353.626587 835.649597,347.681152 827.979736,345.816437 
	C827.686523,345.745148 827.303650,345.501556 827.206055,345.245422 
	C823.939514,336.674896 814.276062,335.141632 809.146729,328.907288 
	C804.558899,323.331085 798.211487,320.380463 793.150879,315.686493 
	C791.075500,313.761475 788.915405,311.914948 789.131897,308.180084 
	C789.243408,306.255798 786.632935,304.079346 785.063416,302.172424 
	C782.114075,298.588837 779.426147,295.113464 780.680664,289.893585 
	C781.281738,287.392639 778.282410,286.228760 777.194092,284.260834 
	C776.226685,282.511566 774.563904,281.023193 776.295532,278.953430 
	C778.141357,276.747284 780.599792,276.763367 782.466248,278.469421 
	C787.534302,283.101990 793.175781,287.260864 796.874268,293.177246 
	C799.762573,297.797516 803.954956,300.019348 808.845215,302.035675 
	C814.085571,304.196350 819.076233,307.271362 823.660339,310.647308 
	C831.951111,316.752960 839.903992,323.331848 845.050720,332.577026 
	C845.366455,333.144196 845.933350,333.601196 847.385864,333.069885 
	C843.769104,325.657654 845.994507,316.447784 839.568726,309.785095 
	C838.425903,308.600128 838.744324,308.292999 839.894409,304.820557 
	C837.387695,299.058136 832.360840,294.712311 835.085815,287.765564 
	C835.922119,285.633606 835.290955,282.728027 833.946533,281.110199 
	C829.458801,275.709320 830.518433,268.099518 825.944031,262.656006 
	C824.073914,260.430634 823.926941,257.262726 820.321777,255.755280 
	C818.743164,255.095215 817.939575,251.536850 814.021423,252.147125 
	C816.434998,248.922714 818.254089,247.107727 821.392456,249.727264 
	C824.153137,252.031555 827.742676,252.469345 830.989014,253.401276 
	C834.539368,254.420486 836.922546,256.053833 838.140015,259.522095 
	C839.106323,262.275085 841.387329,263.521484 843.657104,265.261444 
	C847.627625,268.305298 853.157959,270.365509 852.979919,277.712128 
	C852.868469,282.309753 857.057434,286.619385 860.295349,290.388153 
	C861.877197,292.229340 863.917358,293.952332 862.830627,296.363281 
	C860.259827,302.066925 862.725891,307.258942 864.559448,312.148193 
	C868.179749,321.801788 869.487244,330.958801 863.211853,339.987305 
	C862.678345,340.754913 862.641052,341.867401 862.361267,343.208130 
z"/>
<path fill="#b39653" opacity="1.000000" stroke="none" 
	d="
M578.004395,645.900146 
	C578.389282,642.937378 579.589905,640.874023 582.682861,639.254578 
	C576.007141,637.025940 575.841614,631.888550 575.903748,626.897949 
	C576.023926,617.246033 576.406494,607.596619 576.748840,597.948608 
	C576.880981,594.223572 576.205688,591.428162 571.656372,590.957825 
	C569.531311,590.738098 566.415710,583.606384 566.947327,580.953308 
	C567.707458,577.159790 570.457520,576.532776 573.755554,576.729553 
	C579.732971,577.086304 585.712646,577.411560 591.693909,577.695312 
	C594.527222,577.829773 597.184204,577.960632 596.697815,582.013062 
	C596.608093,582.761353 597.477905,583.422485 598.764221,583.559509 
	C599.880615,577.801941 603.864197,577.110413 608.912598,578.070190 
	C609.319397,579.958740 608.493896,581.747742 610.525208,583.436340 
	C612.436096,585.024841 612.269470,588.318115 612.258057,590.988159 
	C612.200195,604.478394 612.090149,617.968323 612.013062,631.458496 
	C611.993225,634.920288 611.467163,637.817322 606.939392,637.745239 
	C600.693848,637.645630 599.745789,636.857117 599.658142,631.147400 
	C599.463989,618.495605 599.272827,605.843689 599.026062,593.192871 
	C598.991882,591.437500 599.437378,589.516418 597.795837,587.808167 
	C592.956421,589.860657 590.159363,593.058350 590.286499,598.702148 
	C590.473877,607.025635 590.318665,615.357117 590.288879,623.685059 
	C590.282349,625.515808 590.808899,627.680664 590.031799,629.120483 
	C586.186340,636.244751 589.816711,641.220825 594.263245,646.195068 
	C595.805908,647.920715 597.312378,649.175964 599.791382,648.811890 
	C601.899536,648.502258 602.913391,647.298462 603.494873,645.325806 
	C604.898254,640.565613 613.749878,638.480408 616.850891,642.536560 
	C619.518127,646.025269 623.515137,647.726624 626.296936,651.085632 
	C628.069336,653.225769 628.471924,654.983704 628.167114,657.265442 
	C627.820740,659.858032 625.498962,658.937683 623.955566,659.579651 
	C620.014343,661.218994 616.395447,662.891968 614.148499,657.267822 
	C611.412476,660.872314 611.756042,665.504333 615.107239,667.545288 
	C618.924011,669.869751 620.905396,674.577637 625.744690,675.460327 
	C626.165833,675.537170 626.548645,676.040039 626.869934,676.413330 
	C629.500488,679.469727 628.489990,695.889709 625.525757,698.488953 
	C621.493896,702.024414 609.121826,702.429260 604.835815,698.823547 
	C601.309204,695.856567 598.698364,694.989685 594.660645,698.631226 
	C592.196411,700.853699 587.866577,703.280151 584.336548,701.530212 
	C579.021851,698.895630 571.584656,698.386292 571.128479,689.648804 
	C570.803955,683.434021 575.919678,684.022461 578.992798,682.551636 
	C581.828003,681.194702 583.310974,684.017273 584.162354,686.532166 
	C584.785278,688.372009 585.040283,690.420532 586.915588,691.580750 
	C591.413574,686.919556 590.322937,680.687988 584.580750,678.492249 
	C580.619141,676.977356 577.978760,674.563354 576.333740,670.581055 
	C575.213623,667.869324 573.802063,665.206909 572.366333,662.592163 
	C570.316711,658.859314 569.989807,654.599121 573.824829,651.237549 
	C575.454346,649.809143 577.061523,648.342041 578.004395,645.900146 
M603.180298,682.374695 
	C605.173767,684.219421 608.100220,684.881897 608.966125,688.187866 
	C609.627380,690.712341 612.396118,692.068298 614.528625,690.369446 
	C616.417603,688.864563 618.449219,685.765320 616.517151,683.417053 
	C613.471985,679.715942 612.312012,673.490234 605.492310,673.995239 
	C604.328064,674.081482 603.449707,672.694458 603.167969,671.610107 
	C602.378723,668.572266 599.629028,666.545166 599.351318,663.130737 
	C599.173340,660.943176 597.389526,659.667175 594.613159,659.841553 
	C592.281921,659.987915 589.550903,660.412659 587.654663,658.147583 
	C586.666931,656.967651 585.578247,655.632446 583.970825,657.097595 
	C582.628174,658.321350 582.814331,660.298401 583.987915,661.128662 
	C589.216003,664.827148 592.574036,669.977173 596.253601,675.036743 
	C597.995178,677.431458 600.845398,679.263062 603.180298,682.374695 
z"/>
<path fill="#b39653" opacity="1.000000" stroke="none" 
	d="
M666.347290,406.563477 
	C667.226807,405.794189 668.369324,404.815430 668.323486,404.756195 
	C664.169312,399.387787 672.596924,393.893402 668.203918,388.493256 
	C667.931519,388.158417 668.910767,386.766510 669.357849,385.892090 
	C671.032532,382.616943 673.969788,379.625458 671.472778,375.459930 
	C671.210022,375.021545 671.400146,374.067413 671.716187,373.563293 
	C675.654846,367.281616 674.966980,360.187256 675.572266,353.274445 
	C675.777588,350.929596 679.445068,349.472778 679.026550,346.959198 
	C677.360901,336.954010 682.739929,328.902374 685.841980,320.203369 
	C686.654114,317.925964 687.987793,317.870392 689.644836,319.073883 
	C692.144226,320.889191 693.127502,323.486908 692.978271,326.497437 
	C692.722778,331.652405 692.395935,336.803894 692.084412,341.955963 
	C691.824768,346.249115 692.169067,350.498657 692.417114,354.782410 
	C692.812317,361.605896 691.586975,368.552734 690.683899,375.399536 
	C690.477966,376.960449 689.300232,378.315247 690.442444,379.995728 
	C690.930237,380.713440 690.839600,382.037201 690.170044,382.282745 
	C682.985657,384.917480 686.472900,390.988098 687.002136,394.955017 
	C687.736145,400.456848 683.664917,403.442535 682.676758,407.848297 
	C682.133850,410.269043 681.579712,412.354401 682.147156,415.017242 
	C682.973877,418.896912 683.505554,422.777008 681.737366,427.062775 
	C679.896484,431.524750 680.084229,436.813477 679.307129,441.728394 
	C678.839966,444.683167 677.465576,447.469452 676.887451,450.296631 
	C675.688965,456.157288 675.478699,462.222107 674.913940,468.207855 
	C674.837769,469.015533 675.424438,470.361115 675.091064,470.599152 
	C668.211731,475.511536 675.406494,484.363342 669.732117,489.610443 
	C669.003174,490.284485 669.790405,491.492126 670.075195,492.446960 
	C670.403320,493.546997 671.170227,495.215637 670.713318,495.744171 
	C664.973633,502.383942 669.693420,511.760071 664.631348,518.501831 
	C667.289612,526.163391 662.008545,531.557312 659.094421,537.590881 
	C657.735107,540.405396 656.369629,543.041077 659.208069,545.676453 
	C655.456543,549.023865 654.362366,553.219604 653.125366,557.272278 
	C652.595764,559.007568 652.103394,560.639526 650.209961,560.821777 
	C647.861511,561.047791 647.289612,559.025391 646.738953,557.261902 
	C646.442261,556.311951 645.947998,555.234314 646.144897,554.348022 
	C648.975769,541.612244 643.643005,528.619995 647.684570,515.722351 
	C648.739502,512.355896 649.297302,508.593231 650.941162,505.356049 
	C653.190063,500.927338 650.414246,496.708221 650.872314,492.365479 
	C651.063110,490.556702 650.812622,488.664093 651.722961,487.038910 
	C653.060913,484.650330 654.214233,482.457184 652.355469,479.702576 
	C651.614136,478.603943 652.162842,476.812683 653.131897,475.993286 
	C655.954285,473.606720 655.897034,470.181335 657.070129,467.149933 
	C658.675171,463.002106 658.080078,459.584625 657.297974,455.341980 
	C656.324280,450.060394 657.971924,444.161865 660.366028,439.029663 
	C662.510071,434.433319 663.205811,429.879150 663.871460,424.834473 
	C664.655212,418.894867 662.172058,412.306396 666.347290,406.563477 
z"/>
<path fill="#b39653" opacity="1.000000" stroke="none" 
	d="
M731.864990,624.557983 
	C734.899597,624.861755 737.611694,624.686462 740.182251,625.208374 
	C743.097656,625.800354 744.064209,626.929565 743.122009,630.806824 
	C740.778259,640.451355 733.294495,637.321716 727.686707,637.684204 
	C718.562073,638.273987 717.124512,636.256531 717.017944,627.074219 
	C716.978943,623.714600 717.969360,620.122986 715.796082,616.913513 
	C711.985901,619.943298 710.820862,627.718994 713.283142,633.451233 
	C713.791443,634.634705 715.149719,635.659729 713.948608,636.987488 
	C712.836670,638.216736 711.223816,638.044189 709.718018,637.861328 
	C703.778992,637.140320 703.505981,631.243896 700.564697,627.786011 
	C700.059021,627.191467 699.768311,626.414124 699.372986,625.711731 
	C696.036987,626.196594 696.089233,628.906311 695.486450,630.993591 
	C693.258301,638.709473 688.154663,640.322937 682.184753,634.789185 
	C679.515381,636.899170 676.504272,638.321655 672.833984,637.970886 
	C668.009155,637.509827 666.236206,635.151123 668.112854,630.747070 
	C669.422974,627.672546 668.264832,625.830383 665.713806,624.703430 
	C662.854858,623.440369 662.493713,626.121277 661.689636,627.813416 
	C660.764221,629.760620 659.955200,631.725769 658.686768,633.530396 
	C657.187500,635.663452 655.755188,638.264099 652.880432,636.526123 
	C649.898987,634.723755 648.144714,631.637573 649.512024,627.973511 
	C651.593994,622.394348 651.611572,616.749756 650.867371,610.977356 
	C650.656677,609.342773 650.176697,607.220703 650.943054,606.069946 
	C654.910217,600.113098 652.511780,594.295166 651.123779,588.401550 
	C650.896484,587.436523 650.757812,586.437744 650.700623,585.447510 
	C650.279175,578.157715 653.123535,575.860474 659.994019,578.414917 
	C662.628418,579.394409 664.412598,579.179199 666.861206,577.806091 
	C674.140808,573.723816 679.473206,576.917664 680.467407,585.119934 
	C681.918030,597.086487 680.969543,609.076416 681.346313,621.048279 
	C681.411499,623.120117 680.686462,625.416077 682.685059,627.369202 
	C683.215881,627.177368 684.219727,627.087341 684.319824,626.738159 
	C686.462524,619.262390 690.421265,612.054321 686.098389,603.876526 
	C683.919678,599.754944 684.418701,594.874268 686.503845,590.749878 
	C688.433411,586.933105 691.239990,583.551514 693.734985,580.031250 
	C696.005066,576.828308 699.888977,576.870483 702.282349,579.978333 
	C706.264648,585.149658 711.325256,590.658081 708.551697,597.362122 
	C706.107361,603.270386 709.862488,607.168762 710.536987,611.990112 
	C710.654114,612.827454 711.665527,613.112610 712.950073,613.067322 
	C714.483948,608.972839 713.649719,604.796326 712.837585,600.649658 
	C716.722839,599.165527 719.088623,594.445251 716.463867,590.342773 
	C713.584900,585.843018 715.253906,583.673401 717.473328,579.798340 
	C719.905151,575.552551 722.347229,575.861633 725.543701,577.167786 
	C728.704834,578.459473 729.483459,581.381287 729.458252,584.598206 
	C729.373474,595.413452 729.331665,606.229065 729.280151,617.044495 
	C729.267456,619.711609 729.078308,622.439453 731.864990,624.557983 
M664.744873,589.514343 
	C664.419495,592.399170 664.025330,595.316467 668.182983,596.658813 
	C669.376648,593.479431 668.319702,590.877991 667.176697,588.450867 
	C666.589050,587.202881 665.561829,587.897583 664.744873,589.514343 
z"/>
<path fill="#b39653" opacity="1.000000" stroke="none" 
	d="
M404.239075,578.000916 
	C407.454956,577.257019 408.587280,578.442688 410.212952,581.002563 
	C413.289459,585.846985 413.115875,591.368530 413.424469,596.270996 
	C413.635956,599.630981 413.663818,603.759583 412.809418,607.504578 
	C411.962738,611.216064 411.729492,615.017883 413.588837,618.711365 
	C414.588989,620.698059 414.134644,622.847290 413.105011,624.940063 
	C411.338684,628.530029 410.180878,632.295288 412.122009,636.836548 
	C407.909302,637.471313 404.428833,639.723450 401.203278,635.025513 
	C399.797089,632.977417 396.646057,632.573181 394.732819,635.322937 
	C392.447052,638.608154 389.317749,638.089294 386.225311,637.440674 
	C382.976898,636.759338 383.829712,633.879639 383.633179,631.710510 
	C382.959839,624.278931 382.643890,616.785706 382.278046,609.372681 
	C381.969330,603.116821 383.537903,596.612549 383.068542,590.150513 
	C382.931244,588.260559 383.618286,586.064148 381.191650,584.691284 
	C378.462738,585.699890 379.220856,588.174744 379.205292,590.122620 
	C379.113434,601.611633 379.187714,613.101990 379.090210,624.590881 
	C379.066345,627.403931 378.746307,630.234375 378.313782,633.018250 
	C377.882111,635.796631 376.776947,638.368164 373.374207,638.239624 
	C369.994873,638.112000 367.020660,636.902039 366.500244,633.013672 
	C365.329987,624.269775 364.403198,615.456909 365.180511,606.660522 
	C365.795441,599.701782 365.479614,592.711975 366.568756,585.760681 
	C367.916138,577.161194 372.990326,574.158630 380.946198,578.151611 
	C383.549194,579.458008 385.384460,580.894226 388.291779,578.272827 
	C390.590820,576.199829 393.175537,579.315125 395.738190,579.557617 
	C396.683075,579.647095 397.697845,578.904358 398.724457,579.951721 
	C399.945618,582.306091 397.840759,584.161377 397.376953,586.328369 
	C396.863190,588.728516 397.909546,590.816467 399.034088,593.342834 
	C401.542145,591.469666 400.457520,588.992981 400.692261,586.938721 
	C401.058502,583.733643 400.123413,580.100342 404.239075,578.000916 
M396.374298,629.065063 
	C398.647064,628.550049 399.872162,627.047485 399.707489,624.801208 
	C399.580261,623.064819 398.675690,621.646729 396.321777,621.786011 
	C394.720520,623.974854 394.943146,626.332886 396.374298,629.065063 
z"/>
<path fill="#b39653" opacity="1.000000" stroke="none" 
	d="
M802.439697,245.725800 
	C804.553406,251.071320 809.182739,253.962906 812.604492,257.841278 
	C815.124878,260.698151 817.505676,263.209473 817.217834,267.270996 
	C817.069397,269.364777 818.376770,270.862671 819.160339,272.641724 
	C821.778076,278.584930 825.508972,284.258484 825.690063,291.001953 
	C825.754028,293.383270 826.968018,294.712219 828.374390,296.014343 
	C831.030762,298.473877 833.103943,301.102478 830.357788,304.543823 
	C828.205994,307.240417 823.500244,306.720306 820.799927,303.007446 
	C815.418884,295.608551 807.427612,290.926605 801.813171,283.708038 
	C797.106445,277.656311 789.426819,274.617371 784.356934,268.699341 
	C782.617004,266.668243 781.207092,264.593353 780.310608,261.969879 
	C779.186462,258.680206 776.790955,256.090027 774.492371,253.397003 
	C772.125916,250.624496 769.110779,248.289444 767.943420,244.303848 
	C767.187500,241.723068 765.222595,238.911575 761.890381,238.209991 
	C759.612305,237.730331 758.913391,235.860168 757.911560,234.103134 
	C755.256470,229.446686 753.413818,224.309570 747.197693,222.485443 
	C744.222290,221.612274 741.935486,218.438354 741.765808,214.695496 
	C741.712463,213.518799 741.788208,212.326813 742.866333,211.544052 
	C744.122864,210.631805 745.063171,211.504532 745.966064,212.214371 
	C747.905518,213.738983 750.026428,216.838745 751.685120,216.599823 
	C758.642090,215.597733 763.461548,220.003693 768.550903,222.874481 
	C774.533691,226.249191 782.385498,226.022537 786.814453,232.376572 
	C787.496704,233.355438 788.991272,234.151596 790.205505,234.312469 
	C796.900391,235.199432 799.875916,240.026840 802.439697,245.725800 
z"/>
<path fill="#b39653" opacity="1.000000" stroke="none" 
	d="
M273.709686,310.439453 
	C271.330719,310.387512 270.502411,308.862915 271.194031,307.425140 
	C276.411194,296.579559 275.783813,283.906525 281.914703,273.384491 
	C283.851349,270.060730 285.756805,267.279510 284.632233,262.659424 
	C284.000427,260.063812 288.011841,256.871826 290.405884,254.337326 
	C296.642242,247.735016 304.937408,243.616104 311.063904,236.730057 
	C318.088379,228.834671 327.600677,224.980438 337.770325,222.387253 
	C342.434509,221.197922 346.111969,221.235794 349.220764,225.790482 
	C347.892517,231.285645 343.157410,234.334610 338.648285,237.072784 
	C336.224609,238.544525 334.258514,240.011490 333.274841,242.471771 
	C332.274902,244.972763 331.707031,247.610947 328.697052,248.538803 
	C328.408234,248.627823 327.955780,248.978165 327.976227,249.163422 
	C328.641693,255.198120 322.327362,256.885223 320.322052,261.332764 
	C319.486603,263.185669 320.214752,264.866547 319.656921,266.990204 
	C313.353912,266.875305 311.088898,272.356140 309.488007,276.448853 
	C306.548035,283.965027 300.123810,287.077759 294.740906,291.753143 
	C290.716248,295.248779 285.591583,297.357178 282.833313,302.731079 
	C281.219299,305.875641 277.728485,308.669556 273.709686,310.439453 
z"/>
<path fill="#b39653" opacity="1.000000" stroke="none" 
	d="
M622.322083,579.331787 
	C625.158081,576.127686 628.030579,576.127136 631.481750,577.637207 
	C639.045044,580.946472 644.025452,586.267700 645.662231,594.481689 
	C645.791687,595.131226 646.068848,595.880005 645.875305,596.444946 
	C644.371094,600.835083 642.470276,605.033508 645.971130,609.583374 
	C647.150085,611.115723 644.640198,612.692444 643.795715,614.412964 
	C646.681152,618.165833 646.593506,621.985901 643.857178,625.828918 
	C643.388611,626.486938 643.156372,627.332153 642.898071,628.118103 
	C640.336121,635.913940 636.691040,637.803711 628.517883,635.269165 
	C626.622192,634.681274 624.903381,635.342590 623.101685,635.245056 
	C618.192078,634.979187 615.676514,631.311951 617.246887,626.755493 
	C617.558350,625.851562 617.865417,624.640686 617.519653,623.862244 
	C613.616821,615.075195 616.166687,605.857849 615.865845,596.874268 
	C615.730469,592.830933 618.229797,588.900696 617.444092,584.369873 
	C617.071960,582.223999 620.033752,580.773376 622.322083,579.331787 
M633.060181,614.937866 
	C634.477844,612.977112 634.781677,610.747986 634.959167,608.380981 
	C635.374146,602.846619 631.625916,598.015686 632.446777,592.402466 
	C632.610229,591.284485 631.530457,590.182495 630.111877,590.403198 
	C628.295898,590.685608 627.694580,591.991150 627.930054,593.693848 
	C628.610229,598.612915 629.470642,603.501953 629.313416,608.512695 
	C629.199036,612.158630 629.214905,615.788696 628.438660,619.389832 
	C628.141113,620.770142 627.773682,622.766785 629.816956,623.046570 
	C631.954285,623.339111 632.458984,621.472778 632.633728,619.732300 
	C632.765991,618.414551 632.781860,617.085144 633.060181,614.937866 
z"/>
<path fill="#b39653" opacity="1.000000" stroke="none" 
	d="
M495.660889,640.311707 
	C498.048798,645.193359 502.716644,647.521179 505.552612,651.683411 
	C509.806122,657.926208 510.278778,663.632324 507.026031,670.356323 
	C504.795197,674.968018 502.606567,679.003418 497.111023,680.166626 
	C493.857056,680.855469 493.336487,683.542175 493.286743,686.373413 
	C493.219269,690.215515 492.842346,694.040710 491.696869,697.704102 
	C490.786224,700.616455 489.506439,703.555725 485.636810,703.212891 
	C481.763000,702.869568 480.326141,699.974243 479.891205,696.669678 
	C478.868225,688.897156 478.382233,681.063477 478.962982,673.237793 
	C479.602814,664.615601 479.892792,655.954407 481.704407,647.438477 
	C482.791840,642.326904 486.897614,640.347534 490.767120,638.189087 
	C492.603149,637.164856 494.267700,638.398315 495.660889,640.311707 
M493.342529,661.685059 
	C493.382324,662.344543 493.360931,663.014648 493.474152,663.661316 
	C493.741516,665.188538 494.171021,666.713562 496.159363,666.535034 
	C497.613892,666.404480 497.900787,665.123901 497.966339,663.955017 
	C498.076294,661.993652 498.457611,659.702393 496.271912,658.682007 
	C494.424500,657.819519 493.607849,659.214355 493.342529,661.685059 
z"/>
<path fill="#b39653" opacity="1.000000" stroke="none" 
	d="
M312.757324,498.839691 
	C313.302887,500.659637 313.663239,502.111145 312.588531,503.494904 
	C310.734711,504.356262 309.196960,503.150635 309.175476,501.824860 
	C309.106140,497.550476 305.833893,493.763885 306.149963,490.072113 
	C307.219940,477.574921 302.580231,465.170837 305.075531,452.995300 
	C306.689484,445.120148 306.113647,436.699097 310.029297,429.310211 
	C310.768890,427.914612 310.775238,426.419006 310.682983,424.928070 
	C310.447113,421.115814 310.952423,417.584167 314.097778,415.367249 
	C314.329163,413.205444 312.583740,412.488739 312.101501,411.106415 
	C311.678589,409.894104 311.751678,408.796936 312.816315,407.962982 
	C314.207306,406.873444 315.802917,406.487396 317.514008,406.963165 
	C318.804474,407.321991 319.070282,408.192078 319.149231,409.585724 
	C319.361420,413.331482 319.340698,416.787079 316.176056,419.576324 
	C313.724396,421.737213 314.854858,424.690308 315.611115,427.088776 
	C316.677582,430.471100 315.377502,433.278290 314.452148,436.255096 
	C313.782013,438.410858 312.490356,438.592346 310.215179,437.257324 
	C314.883850,445.287628 311.515778,453.420563 311.818176,461.413330 
	C312.285614,473.768372 310.929535,486.167267 312.757324,498.839691 
z"/>
<path fill="#b39653" opacity="1.000000" stroke="none" 
	d="
M313.277069,521.500732 
	C312.640594,517.459045 309.169342,514.968933 308.896759,511.250641 
	C308.755615,509.325378 307.492523,506.471039 310.518127,505.807434 
	C313.285522,505.200409 315.190063,506.616669 315.514618,509.830627 
	C315.829498,512.948669 316.703888,516.011169 317.002472,519.129639 
	C317.228455,521.489624 316.872192,523.815857 313.277069,521.500732 
z"/>
<path fill="#b39653" opacity="1.000000" stroke="none" 
	d="
M789.123535,503.467682 
	C789.868164,507.182404 786.845215,509.967255 787.864563,513.482117 
	C788.183350,514.581482 786.972046,516.148376 785.295105,515.765930 
	C783.554321,515.368896 782.692200,513.659790 783.396362,512.293884 
	C785.466248,508.279266 785.103088,504.077362 784.682617,499.595581 
	C787.561157,499.444061 788.240417,501.343170 789.123535,503.467682 
z"/>
<path fill="#b39653" opacity="1.000000" stroke="none" 
	d="
M348.039703,219.063278 
	C348.830170,218.194595 349.409607,217.608124 350.015778,217.050735 
	C351.398224,215.779495 352.859741,214.585892 354.808075,215.899124 
	C356.223083,216.852890 356.748993,218.382950 355.773346,219.769516 
	C354.320007,221.834946 352.247223,223.399155 349.578888,223.075851 
	C347.493530,222.823181 347.034454,221.252396 348.039703,219.063278 
z"/>
<path fill="#b39653" opacity="1.000000" stroke="none" 
	d="
M759.837158,642.706116 
	C761.232483,642.911865 762.375183,643.228943 762.288757,644.406433 
	C762.247192,644.971619 761.274902,645.743835 760.589050,645.933167 
	C758.783264,646.431824 756.960693,646.487183 755.853333,644.496521 
	C756.347595,642.384216 758.043762,642.812256 759.837158,642.706116 
z"/>
<path fill="#b39653" opacity="1.000000" stroke="none" 
	d="
M558.650574,530.567627 
	C555.554993,535.701599 550.766724,536.529480 545.855164,536.201660 
	C539.612000,535.785034 533.555359,535.226135 527.561707,538.069885 
	C526.095581,538.765503 523.226013,537.602417 521.515991,536.497864 
	C513.370178,531.236023 504.387238,527.075928 497.353088,520.384338 
	C495.102448,518.243286 490.866272,515.645508 492.747681,510.506531 
	C493.244141,509.150513 491.230377,506.601562 489.950012,504.919495 
	C485.828613,499.505005 485.521271,493.297241 485.793762,486.921356 
	C485.836731,485.916931 485.997559,484.873077 486.910614,484.258148 
	C490.159790,482.069794 489.439911,479.240570 488.235046,476.648224 
	C491.779877,471.722229 494.855103,466.981293 496.123535,461.126862 
	C496.917755,457.461212 499.582245,454.380096 502.991211,453.066528 
	C505.614044,452.055939 507.641937,450.606995 509.575775,448.833710 
	C512.681458,445.985962 515.465576,443.214203 520.483154,445.303802 
	C522.115540,445.983612 524.960876,444.429382 526.976990,443.373077 
	C531.678528,440.909760 536.431213,442.622681 541.013672,442.341827 
	C546.699402,441.993378 549.934448,445.446503 554.332458,446.150238 
	C557.355225,446.633972 558.791138,448.255219 560.955383,449.546234 
	C566.471680,452.836761 570.797668,457.142242 574.208740,462.518341 
	C575.458740,464.488495 576.506653,466.222748 576.491028,468.846008 
	C576.463379,473.483276 578.919250,477.689362 579.992249,482.189728 
	C581.229919,487.380371 581.199890,491.914215 579.907349,497.185120 
	C578.718567,502.032715 577.243164,506.703186 575.293518,511.181732 
	C572.921448,516.630859 570.797791,522.367859 564.285339,524.835693 
	C562.072998,525.674133 559.376709,527.173340 558.650574,530.567627 
M532.702454,516.037720 
	C536.534668,515.447632 540.643433,518.251221 544.264343,515.109375 
	C546.079468,513.534424 548.056824,512.606995 550.572021,512.565186 
	C552.653259,512.530701 554.305664,511.193054 555.509705,509.519012 
	C558.464600,505.410797 562.038452,501.706665 560.493713,495.703094 
	C559.787659,492.958862 560.164856,489.545990 561.176453,486.860291 
	C562.172974,484.214417 561.676331,482.334625 560.920288,479.885681 
	C559.706360,475.953735 557.489990,473.325928 553.957825,471.338226 
	C550.934631,469.636963 547.903625,467.712799 545.434631,465.312622 
	C540.247620,460.270233 534.235168,459.476654 527.905151,463.551361 
	C526.653137,464.357330 525.151733,465.667175 523.824341,464.758972 
	C521.255859,463.001617 519.927063,464.676331 517.793396,465.700043 
	C512.776062,468.107269 510.991638,472.452026 508.850098,477.018799 
	C505.218384,484.763184 504.583374,492.189423 509.119019,499.724670 
	C510.141693,501.423737 511.478271,503.118958 511.418549,505.180481 
	C511.352722,507.451691 512.696716,508.296265 514.343689,509.303650 
	C517.301208,511.112701 521.263977,511.780701 521.963989,516.309387 
	C522.149414,517.509216 524.033325,517.613037 525.473450,517.286499 
	C527.578369,516.809265 529.724182,516.512329 532.702454,516.037720 
z"/>
</svg>