<svg version="1.1" id="Layer_1" xmlns="http://www.w3.org/2000/svg" xmlns:xlink="http://www.w3.org/1999/xlink" x="0px" y="0px"
	 width="100%" viewBox="0 0 1024 1024" enable-background="new 0 0 1024 1024" xml:space="preserve">
<path fill="#b69353" opacity="1.000000" stroke="none" 
	d="
M746.757080,516.456665 
	C750.253296,534.565491 751.798767,552.577942 753.997009,570.480347 
	C754.985596,578.531311 757.248840,586.830078 754.540894,595.073669 
	C759.071167,600.624878 751.662292,607.223145 756.094360,612.896484 
	C756.761169,613.750061 756.790833,615.743042 756.267273,616.781250 
	C752.787720,623.679993 755.500183,631.100525 755.845886,637.787109 
	C756.294739,646.468628 754.248047,654.867798 755.059631,663.393799 
	C755.305847,665.980103 753.606873,668.658752 755.504883,671.233276 
	C757.132324,671.112305 757.684265,669.630615 757.830627,668.543152 
	C759.318115,657.488403 767.443176,648.948792 769.268860,638.009399 
	C769.839478,634.589905 771.375916,631.344910 770.553223,627.733093 
	C770.049011,625.519470 771.952576,624.137817 772.618896,622.344788 
	C774.171570,618.166321 776.012817,613.817017 775.106873,609.302002 
	C774.122192,604.394470 777.919312,600.922913 778.097778,596.372070 
	C778.628235,582.840454 782.805481,569.752808 783.244446,556.191650 
	C783.930481,534.997803 785.171265,513.828674 784.865540,492.593719 
	C784.751892,484.704041 786.070923,476.383270 784.825256,468.910522 
	C783.411560,460.429840 786.694031,451.185272 781.180847,443.369385 
	C780.921692,443.002014 780.725952,442.229553 780.925903,441.951752 
	C785.505493,435.589142 781.022217,429.332031 780.882629,423.023529 
	C780.653198,412.650818 778.231934,402.574249 777.438538,392.252899 
	C776.269958,377.050446 773.301941,361.958771 769.856750,346.665192 
	C768.483215,348.766388 770.784546,351.210144 767.919250,353.190430 
	C765.745667,349.578705 764.763428,345.873322 766.435181,342.107300 
	C768.231750,338.060211 768.198059,334.553925 765.740784,330.844513 
	C764.771912,329.381805 764.114868,327.468781 764.007019,325.718231 
	C763.200928,312.633820 757.310364,300.803589 754.901367,288.128876 
	C753.802612,282.347778 752.026062,276.670593 754.476074,270.651428 
	C755.960754,267.004059 758.425537,264.764709 761.884277,264.000336 
	C765.411194,263.220856 766.548828,266.571564 767.946472,268.941803 
	C774.860168,280.666321 778.691284,293.547455 781.986389,306.630646 
	C786.615601,325.010651 791.939636,343.244476 795.782043,361.786255 
	C800.223145,383.216278 803.660156,404.856720 806.440247,426.600616 
	C811.471680,465.953644 812.817932,505.458588 812.289429,545.068054 
	C812.091919,559.869202 811.149231,574.654846 809.251770,589.312683 
	C807.559631,602.384644 805.865356,615.477783 803.868774,628.486389 
	C802.596436,636.775391 800.403992,645.165283 799.183960,653.436157 
	C797.465271,665.087280 791.934814,675.809875 792.002930,687.868103 
	C792.029968,692.650513 788.067200,696.766479 786.696411,701.643311 
	C781.846802,718.895630 776.454590,735.998230 771.029785,753.081970 
	C770.385010,755.112427 767.338379,756.515198 766.998047,758.484253 
	C765.403259,767.709900 757.923828,773.923279 755.147644,782.299988 
	C752.537415,790.176086 748.460693,797.040466 744.026367,803.833923 
	C725.881653,831.632141 704.811279,857.077271 681.122437,880.263245 
	C675.782288,885.490051 670.516724,891.329651 664.282043,895.232727 
	C653.877991,901.745911 645.835693,911.655212 634.736389,916.641052 
	C622.017395,922.354553 610.499573,930.561462 597.331665,934.946228 
	C592.454834,936.570068 587.684692,939.311218 582.141968,939.410461 
	C576.558228,939.510437 572.094604,943.724548 566.304260,944.133179 
	C557.707275,944.739929 549.732910,948.676331 540.731995,948.576172 
	C536.251221,948.526245 531.033081,949.248047 526.439087,951.009827 
	C524.689636,951.680725 523.200684,951.220032 521.656372,950.485046 
	C519.391846,949.407166 517.469788,948.602600 514.814697,950.531860 
	C512.672363,952.088440 509.492188,950.257324 506.615662,950.507996 
	C501.949524,950.914673 497.024475,951.287781 492.202606,951.317871 
	C490.774597,951.326782 489.629547,950.826355 488.642639,949.816040 
	C487.071014,948.207031 484.964325,948.013062 483.035248,948.435486 
	C473.866486,950.443481 465.581879,946.919434 456.958527,944.913269 
	C451.705841,943.691284 446.816895,939.771545 440.751495,941.818542 
	C440.458893,941.917358 436.612091,940.527100 435.270050,939.367920 
	C430.279358,935.057373 423.960907,934.529602 418.382050,932.088623 
	C411.647675,929.142090 404.962616,925.803162 398.373108,922.400513 
	C387.359375,916.713379 377.074493,909.970825 367.101959,902.567017 
	C361.709656,898.563599 356.466675,894.186768 351.332550,890.018250 
	C346.237152,885.881165 341.340057,880.847534 336.736176,875.831055 
	C334.050262,872.904358 331.438019,869.923157 327.681671,868.118408 
	C325.788544,867.208862 324.550049,865.212952 323.639282,863.178589 
	C323.104095,861.983215 322.569092,860.662415 321.662140,859.780518 
	C317.671448,855.900024 313.662903,851.984192 311.121704,847.002747 
	C308.166656,841.210083 301.966003,838.263977 298.991333,832.635803 
	C297.122314,829.099609 294.568115,826.040955 292.554932,822.679382 
	C287.311218,813.923401 279.520081,806.809753 275.590302,797.341980 
	C272.612579,790.168213 266.419586,784.859741 264.817169,776.884155 
	C264.167358,773.649841 260.625946,770.972046 259.580078,768.033936 
	C256.576111,759.595276 250.041458,752.895569 248.916321,743.414490 
	C248.215637,737.510254 244.733612,731.905762 242.328415,726.239563 
	C234.703415,708.276428 229.322678,689.567932 223.382828,671.021179 
	C217.863602,653.787720 214.353561,636.161133 210.364914,618.593628 
	C209.043747,612.774719 209.073990,606.292542 206.529068,601.312927 
	C204.420959,597.187927 206.246613,594.056946 205.609604,590.643677 
	C203.518723,579.440308 203.957336,567.817139 200.005676,556.922607 
	C199.629044,555.884277 199.948944,554.609863 199.840332,553.454956 
	C199.226639,546.928833 201.143860,540.148987 197.807678,533.873779 
	C197.387009,533.082520 197.488480,531.859558 197.696686,530.913269 
	C198.968491,525.133545 198.501389,519.623596 196.971603,513.817749 
	C195.810028,509.409241 196.375214,504.414673 196.819168,499.742371 
	C197.660767,490.885193 196.588867,482.054779 196.868866,473.209625 
	C196.947449,470.727142 196.111084,468.310577 198.209503,466.240631 
	C198.600906,465.854584 198.711777,464.953644 198.617493,464.341949 
	C197.833786,459.258209 199.066483,454.341339 199.459106,449.334167 
	C201.476212,423.610504 205.639145,398.276459 211.135620,373.093109 
	C212.606827,366.352509 213.404785,359.395172 215.320129,352.775940 
	C219.829041,337.193390 225.690521,321.956512 229.387787,306.200378 
	C231.994781,295.090424 236.791489,284.923187 240.657639,274.439545 
	C246.285797,259.177979 253.147873,244.248459 261.460327,230.149216 
	C263.264679,227.088730 262.578735,223.487717 264.262115,220.742996 
	C267.772400,215.019531 270.319458,208.733246 274.704468,203.492905 
	C276.454254,201.401855 276.825348,198.182617 278.508270,196.006012 
	C288.826752,182.660904 295.252686,166.623444 308.136932,154.916885 
	C312.311951,151.123489 316.155090,146.121323 319.046631,140.477615 
	C321.574860,135.542999 328.238312,132.917068 331.966156,128.363525 
	C337.859711,121.164543 345.284546,115.564560 351.463165,108.625587 
	C355.361359,104.247604 359.115387,98.635307 365.817291,96.341385 
	C369.318512,95.142982 371.809174,90.670425 375.442596,88.320724 
	C389.274811,79.375641 402.998291,70.123772 418.937683,65.401726 
	C423.124573,64.161354 427.762543,64.945503 430.562134,60.460381 
	C431.119202,59.567852 432.427582,60.377186 433.329285,60.769901 
	C435.352905,61.651249 437.722504,61.396305 439.098541,60.284527 
	C446.140503,54.594929 455.117981,54.740417 463.122253,53.214996 
	C468.772034,52.138283 475.400146,49.905693 481.632599,52.845356 
	C484.095490,54.007034 486.210754,51.654076 488.723755,51.430904 
	C494.387207,50.927959 499.220581,54.473938 504.821014,53.924664 
	C507.293152,53.682201 509.742340,54.192703 511.789825,52.152119 
	C512.736816,51.208244 514.414001,50.776756 515.554749,51.363022 
	C521.737122,54.540359 528.573486,52.211121 534.959778,53.883442 
	C538.992737,54.939526 543.114197,55.849522 547.331543,56.395790 
	C550.746765,56.838177 554.342896,60.197788 558.410400,61.129597 
	C563.820129,62.368916 568.929749,64.147392 574.783508,64.328041 
	C580.144775,64.493484 585.417053,68.308304 590.680603,70.624016 
	C594.748047,72.413467 598.665649,74.564476 602.795471,76.183327 
	C605.342712,77.181816 607.216736,78.735054 609.287231,80.444382 
	C612.186340,82.837791 616.524109,82.906815 619.697144,85.255394 
	C620.481201,85.835747 621.666260,85.933281 622.346191,86.586632 
	C632.298889,96.150116 645.423767,101.115440 655.857971,110.151443 
	C666.307007,119.200272 676.664734,128.335495 686.345886,138.152710 
	C693.556885,145.465073 700.577698,153.058487 706.593079,161.475952 
	C708.313049,163.882690 709.852600,166.559433 712.889526,167.706329 
	C714.270813,168.227982 714.806396,169.284622 714.918579,170.814926 
	C714.998596,171.906113 715.419861,173.318787 716.203125,173.956192 
	C721.713379,178.440506 723.799438,185.343811 728.219543,190.663147 
	C732.656128,196.002335 735.481201,202.683670 736.239929,209.757751 
	C737.277100,219.427567 730.962646,223.888535 721.931702,220.575302 
	C717.850098,219.077850 714.902283,215.800156 710.549438,214.677963 
	C692.578552,210.044968 675.451538,202.207733 657.068420,199.367249 
	C648.542847,198.049896 640.130554,195.790085 631.486938,195.342422 
	C628.450073,195.185120 625.993958,194.382812 624.492920,192.331451 
	C617.390564,193.902084 611.403931,189.746826 604.589172,190.055725 
	C639.077148,238.887878 672.174561,288.361572 696.318115,344.083069 
	C701.862915,338.056732 706.404602,332.391937 709.525513,326.127899 
	C712.770447,319.614960 717.812378,314.374756 720.593445,307.439606 
	C723.216492,300.898590 725.397949,294.115021 728.388489,287.656525 
	C730.064575,284.036835 731.992432,280.579224 734.029419,277.250214 
	C736.043823,273.958099 742.253113,275.268188 744.463196,279.365295 
	C746.366516,282.893768 747.410706,286.753235 747.385132,290.853973 
	C747.301758,304.271851 742.836609,316.671234 738.561157,329.115143 
	C733.467651,343.940369 726.523132,357.829498 718.029907,371.023010 
	C713.448730,378.139404 711.809509,385.312927 715.450989,394.244690 
	C721.507202,409.099426 725.510742,424.765778 729.542969,440.343964 
	C732.745850,452.718140 736.467712,464.968506 739.317444,477.420654 
	C742.243591,490.206787 745.075623,503.041473 746.757080,516.456665 
M438.048553,728.493347 
	C443.776550,731.178833 449.489441,733.897461 455.244965,736.522644 
	C456.431824,737.063965 457.942627,737.820740 459.019562,737.505737 
	C462.384705,736.521118 464.872009,738.180298 467.287506,739.842712 
	C468.581421,740.733154 469.581268,741.427979 471.277618,741.153442 
	C473.381958,740.812988 475.495270,741.757507 476.561768,743.392334 
	C477.923004,745.478882 479.880157,745.947754 481.885773,746.684326 
	C485.147400,747.882080 490.039062,746.922913 491.651550,748.332764 
	C497.660858,753.586548 505.367340,749.622925 511.399353,753.304077 
	C515.517944,755.817444 520.463867,754.755127 524.995728,755.543274 
	C528.595276,756.169250 532.792847,754.766113 535.589783,758.401428 
	C540.462891,755.527649 544.858582,759.170654 549.499939,759.374512 
	C551.392212,759.457581 553.177490,758.686584 553.651672,756.504456 
	C555.297607,748.929871 556.805176,741.324097 558.538757,733.770081 
	C559.634583,728.995483 559.202942,723.638672 560.488831,719.474426 
	C562.664795,712.428162 561.993652,705.021118 564.651367,698.203674 
	C565.206299,696.780029 564.844421,694.867188 564.510193,693.262024 
	C564.089661,691.242371 564.216248,689.562683 565.011414,687.541260 
	C566.250244,684.392029 567.965942,680.504211 567.071899,677.695923 
	C566.128784,674.733643 566.195435,672.229309 566.792603,669.625244 
	C568.920044,660.347656 569.833984,650.878174 570.139526,641.462952 
	C570.346558,635.081482 570.958740,628.584961 571.709290,622.434692 
	C572.499268,615.961060 571.579590,609.487671 572.807129,602.924255 
	C574.007751,596.504700 573.746887,589.381714 573.624878,582.604675 
	C573.311096,565.184937 576.718445,547.945984 575.774109,530.522888 
	C575.738464,529.864319 575.775818,529.168823 575.949036,528.537170 
	C577.523804,522.792786 577.130554,516.903931 576.672546,511.138702 
	C575.799438,500.148102 575.605286,489.207886 576.602356,478.222626 
	C576.885254,475.106262 577.405701,471.741119 576.114807,468.820923 
	C574.398193,464.937592 574.137390,460.760254 574.989685,457.069061 
	C576.080872,452.343475 574.317139,447.866180 575.153809,443.242432 
	C575.566772,440.960419 574.008057,438.221191 571.476379,438.008789 
	C565.859070,437.537537 560.089966,437.090057 554.583374,437.285492 
	C544.443542,437.645386 534.467651,436.268036 525.098389,433.666901 
	C515.111450,430.894287 505.016449,427.367706 495.048737,425.194824 
	C486.436829,423.317535 480.746490,416.878357 472.039795,415.251404 
	C465.531586,414.035248 458.675842,409.458160 452.740845,405.036163 
	C450.380737,403.277679 448.098663,401.414490 444.978668,398.970428 
	C443.847870,410.673828 436.656830,419.421783 434.417694,430.001465 
	C434.245880,430.813416 434.050537,431.649017 434.071930,432.468231 
	C434.153046,435.575500 432.601440,438.241577 431.868561,441.125458 
	C430.075684,448.180481 426.387573,454.484528 424.046661,461.332001 
	C422.314758,466.398010 421.794678,471.716522 420.219421,476.760162 
	C416.673065,488.114777 412.391022,499.253082 409.197754,510.699585 
	C407.260284,517.644714 405.402039,524.657166 403.831970,531.738831 
	C401.799561,540.905945 398.057373,549.679077 395.571381,558.764160 
	C392.070740,571.557312 388.360199,584.368958 386.229767,597.416016 
	C385.572723,601.439941 383.610474,604.714478 383.002136,608.551758 
	C381.977295,615.015991 381.110901,621.559753 379.856689,627.913208 
	C378.464966,634.963135 378.767944,642.460449 375.192352,649.149292 
	C373.673737,651.990173 373.279541,655.551147 373.634857,658.854919 
	C373.969177,661.963806 373.029480,664.563782 372.112244,667.445068 
	C369.835175,674.598022 367.786072,682.253235 373.485840,688.683411 
	C376.744141,692.359314 381.404694,695.852600 385.346588,697.524902 
	C390.925781,699.891724 394.814056,704.098022 399.853363,706.817688 
	C402.024200,707.989319 404.789276,707.198914 406.248505,708.716064 
	C411.862946,714.553406 418.946655,718.036560 425.821167,721.933472 
	C429.639679,724.097961 434.062286,725.126221 438.048553,728.493347 
M654.842896,422.434143 
	C649.421448,425.030701 643.779907,427.088867 638.006531,428.682800 
	C632.719604,430.142456 628.206604,434.384552 621.988403,432.844360 
	C620.673157,432.518616 617.954773,432.580780 617.405762,435.549316 
	C617.112854,437.133453 615.412659,436.673615 614.021301,436.369995 
	C607.455627,434.937439 602.993713,438.338470 603.401794,444.948578 
	C604.618835,464.660645 605.167175,484.389160 605.264343,504.130371 
	C605.375244,526.664307 604.130432,549.206604 605.387146,571.731079 
	C606.174988,585.852478 602.582764,599.658081 603.042175,613.805176 
	C603.433960,625.870483 599.883850,637.819580 600.584106,650.013123 
	C600.657166,651.285034 600.273071,652.715271 599.691711,653.864990 
	C598.521118,656.180176 598.452026,658.637390 598.100952,661.110596 
	C596.416138,672.980469 596.572693,684.981262 595.407715,696.888550 
	C594.711487,704.004639 592.953979,710.867310 591.531128,717.832336 
	C589.748901,726.555908 590.421448,735.672241 587.583618,744.338379 
	C586.520264,747.585632 586.534729,751.226074 586.343262,754.703003 
	C586.233521,756.696594 586.697144,759.391846 589.144653,759.203918 
	C593.932495,758.836182 598.876587,760.198364 603.388672,759.062378 
	C613.088440,756.620361 623.308594,758.402344 632.821472,754.742188 
	C643.258484,750.726624 655.481750,753.127686 665.098633,745.899597 
	C666.108398,745.140686 667.579590,744.993164 668.839417,744.570007 
	C675.412842,742.362549 682.002563,740.201538 688.545471,737.906921 
	C689.589294,737.540833 690.670471,736.756897 691.315247,735.863586 
	C695.123779,730.586792 701.292542,728.527405 706.631470,726.094666 
	C711.392883,723.924988 715.173401,721.322937 718.298401,717.472839 
	C720.235718,715.085754 723.601013,713.006348 723.150513,709.724121 
	C722.520081,705.130432 724.012817,701.183105 725.278931,697.091492 
	C726.581238,692.883179 727.265381,688.610535 726.374634,684.297241 
	C725.786438,681.448425 725.721985,678.762024 726.363708,675.923279 
	C728.410828,666.867493 727.930420,657.571899 728.540466,648.394714 
	C729.290771,637.107727 726.524109,625.693481 728.104919,614.486694 
	C729.674622,603.358643 726.893372,592.512268 727.621582,581.547241 
	C728.078918,574.658936 725.726807,568.066895 726.384827,561.054382 
	C726.915100,555.403137 725.273254,549.533447 724.458435,543.780029 
	C724.229858,542.166199 723.508118,541.028076 721.568787,540.236450 
	C718.558472,539.007690 718.123962,534.853638 719.984314,533.697998 
	C723.915894,531.255798 722.033630,528.793152 721.438049,525.771667 
	C720.739441,527.292297 721.918274,529.104004 719.898865,530.175537 
	C717.616333,527.201965 716.608276,524.232788 718.656311,520.707031 
	C719.136780,519.880005 719.759399,518.768555 719.564026,517.972717 
	C717.638245,510.126373 718.982361,501.886017 716.105103,494.045197 
	C714.759155,490.377289 712.595947,487.030060 711.872314,483.056763 
	C710.146790,473.582306 708.023499,464.189270 704.679688,455.113678 
	C702.570435,449.388977 702.329529,443.318268 701.330750,437.393555 
	C700.327209,431.440369 697.183899,425.736115 695.448669,419.703369 
	C693.970459,414.564270 691.036316,409.843964 688.773071,404.995728 
	C683.735535,406.018524 679.759583,407.894836 676.609924,411.336212 
	C675.725708,412.302338 675.174255,413.647644 673.741638,414.000946 
	C667.179993,415.619080 661.776489,419.800903 654.842896,422.434143 
M320.552856,304.110901 
	C317.063354,305.960419 317.210541,310.037476 315.207550,312.869812 
	C301.500183,332.252808 287.854553,351.678650 278.669037,373.809418 
	C274.336761,384.247162 269.574280,394.515472 264.688751,404.708130 
	C263.444458,407.303986 262.200745,409.730865 262.108795,412.627930 
	C262.007629,415.813324 257.658447,417.002930 257.781311,419.216736 
	C258.105713,425.061951 254.624039,429.626038 253.664551,435.054199 
	C250.425690,453.377838 242.215912,470.504333 240.325867,489.281250 
	C239.876404,493.746674 240.653061,498.050507 241.943420,501.527863 
	C245.519485,511.164948 249.046890,520.846069 253.766205,530.142334 
	C259.267914,540.979675 264.205475,552.129456 269.984222,562.871948 
	C274.304993,570.904053 277.983887,579.300415 283.199554,586.818176 
	C297.296112,607.136536 309.593781,628.823059 327.808167,646.033142 
	C332.465332,650.433533 336.240112,655.802368 341.562225,659.299866 
	C344.071472,657.876160 344.860657,655.813660 345.243500,653.700562 
	C346.863068,644.761597 348.437134,635.812134 349.840393,626.837219 
	C350.532959,622.407776 350.858917,617.918518 351.278534,613.449524 
	C352.056915,605.159912 355.868195,597.578186 356.548035,589.190430 
	C357.149384,581.771423 359.721954,574.665649 361.850281,567.495789 
	C362.991547,563.651184 366.231110,560.515808 365.968262,556.517517 
	C365.711243,552.606873 366.588806,548.897888 367.343079,545.298218 
	C369.123505,536.801453 371.821747,528.506042 373.986816,520.077393 
	C378.782379,501.408539 386.099487,483.497955 391.168427,464.878357 
	C393.421753,456.601410 397.205597,448.732147 400.131805,440.699615 
	C402.908234,433.078247 404.597076,424.845032 407.391144,417.094849 
	C410.921875,407.301422 412.909180,396.963104 418.396027,387.832581 
	C421.288513,383.019196 419.669708,379.153137 415.361816,375.097778 
	C410.046570,370.094147 405.055664,364.744568 399.953674,359.516113 
	C394.033203,353.448883 391.506866,344.679138 384.100220,339.731415 
	C382.673309,338.778259 381.834778,336.869659 381.786072,334.904449 
	C381.755890,333.685883 381.361786,332.611633 380.375183,331.832001 
	C372.986237,325.993073 368.703247,317.750549 364.273438,309.833923 
	C362.313873,306.331909 359.077209,303.233612 358.496796,299.200500 
	C357.387573,291.492279 353.760925,284.875214 350.282898,278.191101 
	C348.802277,275.345612 346.248291,274.744446 343.802277,277.406219 
	C339.683685,281.888000 334.589447,285.338898 331.268250,290.725311 
	C328.414948,295.352905 325.314301,299.988617 320.552856,304.110901 
M399.340393,880.782349 
	C405.566620,883.083679 410.757202,887.278015 416.698029,890.195007 
	C429.999878,896.726379 443.613647,902.204712 458.099487,905.203613 
	C463.615295,906.345459 469.121735,908.342773 474.650085,908.482910 
	C484.258820,908.726501 493.554718,913.479065 503.348541,910.413269 
	C503.778320,910.278748 504.334839,910.493042 504.820038,910.600342 
	C510.060272,911.758911 514.680176,908.896423 516.250671,903.534485 
	C518.939758,894.353455 522.123962,885.281738 524.159424,875.958679 
	C525.342468,870.540039 527.836853,865.686096 529.163635,860.298279 
	C533.235352,843.763367 538.809204,827.602356 542.531921,810.942261 
	C542.816895,809.666809 543.365845,808.395203 544.044006,807.274231 
	C545.466797,804.922485 546.869995,802.553589 545.087891,799.884155 
	C543.375000,797.318481 540.946167,797.595032 538.425720,798.649231 
	C538.032227,798.813843 537.454285,798.581421 536.971802,798.482666 
	C529.209351,796.893982 521.481567,795.106506 513.678284,793.754395 
	C505.388702,792.318054 497.602844,788.152466 488.861511,789.153320 
	C488.404388,789.205688 487.813477,789.042419 487.443909,788.766541 
	C479.066010,782.512329 468.431213,782.496887 459.116669,778.660278 
	C451.944641,775.706177 444.003174,773.906372 437.227875,770.282959 
	C428.472015,765.600464 420.205170,760.158508 410.331116,758.010254 
	C409.002747,757.721191 407.672821,757.153442 407.081177,755.887390 
	C405.688934,752.908447 402.943207,751.642700 400.293213,750.286133 
	C397.045319,748.623474 393.256317,747.685364 390.507324,745.444946 
	C383.188049,739.479797 375.524200,734.208374 366.421295,730.120850 
	C365.732758,746.083557 363.906769,761.761108 365.796326,777.134155 
	C367.050751,787.340027 366.140991,797.649597 368.326843,807.710632 
	C370.478149,817.612610 369.502899,827.807678 371.926971,837.853271 
	C373.427155,844.070129 375.558289,850.423462 375.922913,856.988281 
	C376.051331,859.300537 377.080963,861.200623 378.918976,862.495544 
	C386.275269,867.677856 391.580109,875.105408 399.340393,880.782349 
M484.906311,304.300476 
	C473.121765,324.073853 464.648468,345.491699 454.439972,366.274506 
	C458.462677,367.564056 462.446625,369.423950 465.150757,373.265625 
	C465.584167,373.881348 466.524658,374.148163 467.243408,374.553741 
	C472.857758,377.722137 478.455780,380.920013 484.096313,384.041107 
	C492.144653,388.494537 500.654449,392.037140 509.668030,393.596069 
	C515.118774,394.538788 520.376221,395.172211 525.087402,398.370941 
	C526.656616,399.436371 528.781372,400.262115 530.792725,399.317444 
	C532.516663,398.507843 534.007874,399.588287 535.421997,399.538361 
	C539.455139,399.395966 542.243530,403.602020 546.119934,402.531006 
	C553.098389,400.602966 560.280518,402.444977 567.330750,400.813751 
	C570.779968,400.015686 571.753845,399.104187 572.209717,395.658478 
	C573.598816,385.159149 569.155090,375.042694 570.687500,364.538116 
	C571.280457,360.473969 569.914917,356.519714 568.442383,352.490173 
	C566.864807,348.173035 568.085938,343.133362 567.703918,338.389862 
	C567.305847,333.446198 568.239990,328.352295 565.751953,323.740662 
	C563.300720,319.197174 566.123840,314.609100 565.317810,310.008484 
	C563.417236,299.160461 563.179382,287.974426 559.271545,277.546326 
	C557.233276,272.107269 559.024780,265.901825 556.750488,261.144226 
	C553.545410,254.439423 553.002502,247.185776 552.726440,240.603485 
	C552.319763,230.905914 549.895508,221.984756 547.485352,212.889038 
	C546.487305,209.122269 542.044067,207.429672 539.888977,209.981079 
	C534.748962,216.066559 529.131958,222.200623 526.297180,229.493561 
	C522.763550,238.584412 516.358154,245.675339 511.664124,253.891418 
	C506.959564,262.125854 501.725250,270.251587 497.398438,278.632874 
	C493.172028,286.819702 488.326813,294.841949 484.906311,304.300476 
M405.793884,223.105530 
	C403.222839,226.664474 398.611145,227.047409 395.484833,229.694351 
	C389.202789,235.013092 383.017212,240.373642 375.850525,244.608383 
	C372.686432,246.478012 369.140167,249.465973 369.838989,253.984909 
	C371.548309,265.037933 377.064850,274.823364 381.370483,284.914734 
	C384.518311,292.292480 389.974457,298.678375 394.333740,305.549469 
	C396.203918,308.497192 397.410217,312.027039 399.766205,314.476776 
	C408.334473,323.385986 415.394714,333.669312 424.919464,341.731323 
	C426.859436,343.373352 428.261444,345.885315 430.979095,344.967590 
	C433.442474,344.135681 435.712280,342.271942 436.216797,339.414948 
	C437.848694,330.173431 443.356293,322.487518 447.213776,314.309845 
	C451.092773,306.086548 454.484375,297.602844 458.020721,289.287750 
	C462.504028,278.746124 468.660797,269.190369 473.799561,259.072968 
	C477.900543,250.998749 483.405457,243.643906 485.864960,234.724609 
	C486.117950,233.807037 486.788605,232.961243 487.404694,232.193970 
	C492.580994,225.747482 497.430908,219.070557 500.268860,211.233643 
	C501.376282,208.175491 503.008057,205.637878 505.100739,203.231033 
	C510.236969,197.323746 513.495605,190.342941 516.821472,183.360245 
	C512.467712,181.697800 508.918243,183.195190 505.592407,184.538467 
	C499.509644,186.995209 491.628052,182.984909 486.803864,189.823166 
	C486.641144,190.053802 485.793854,190.020447 485.397339,189.832443 
	C482.272522,188.350754 479.547638,190.037994 476.729919,190.873596 
	C465.262390,194.274246 454.843658,200.409805 443.329956,203.721085 
	C441.977051,204.110168 440.739197,205.206619 439.667450,206.209641 
	C436.113861,209.535263 431.968414,211.305313 427.134399,211.902237 
	C423.617401,212.336533 420.189484,213.860153 417.978149,216.535629 
	C414.863129,220.304367 410.979156,221.962769 405.793884,223.105530 
M553.163147,895.512207 
	C552.891541,896.298767 552.479858,897.067078 552.374756,897.875244 
	C552.073425,900.192627 549.170959,902.482849 551.620911,904.772034 
	C554.027954,907.021240 556.818054,905.350891 559.592163,904.847717 
	C563.829651,904.079163 567.916748,902.929199 572.012390,901.689392 
	C574.139404,901.045532 576.242798,903.447815 578.602783,901.459778 
	C584.839172,896.206726 592.854126,894.347046 600.149597,891.380981 
	C612.541016,886.342896 623.448669,878.592834 635.737976,873.331970 
	C641.599487,870.822815 646.902893,865.403076 651.479004,860.768555 
	C662.292358,849.817627 674.484985,840.282959 683.927856,827.803467 
	C693.014587,815.794800 702.886414,804.437378 709.542908,790.777588 
	C710.849976,788.095276 713.883606,786.265442 714.176697,783.188293 
	C714.814209,776.494995 715.136414,769.770691 716.097534,762.767700 
	C710.580750,768.062561 703.219421,769.417297 697.140381,773.676025 
	C685.539978,781.802979 671.528809,785.682251 657.758179,788.748779 
	C652.093384,790.010315 647.374329,793.715759 641.367859,793.726318 
	C637.392212,793.733276 632.914551,792.753601 629.843933,796.762512 
	C629.560913,797.132080 628.422424,797.286316 627.981750,797.027893 
	C622.876526,794.034607 617.488647,800.797607 612.371460,796.588684 
	C612.099182,796.364685 610.756836,797.485596 609.888733,797.934082 
	C606.760620,799.550171 603.876099,800.350952 600.034912,799.138855 
	C595.886292,797.829773 591.069763,798.046326 587.117493,800.579163 
	C584.756409,802.092407 582.941650,802.325562 581.429443,800.479431 
	C576.061340,804.451843 577.518066,810.834961 575.688110,816.006042 
	C572.324280,825.511658 570.438477,835.585571 567.067444,845.175476 
	C564.912781,851.304810 565.436157,857.953430 563.190308,864.119019 
	C562.160828,866.945312 560.107117,869.318848 559.534363,872.146057 
	C557.977234,879.832214 556.273804,887.450439 553.163147,895.512207 
M256.288788,602.881348 
	C254.957214,598.486328 250.739365,595.531677 249.350266,591.681091 
	C243.763748,576.195374 234.680969,562.231140 230.085403,546.360168 
	C229.321533,543.722107 228.585556,541.006104 226.482010,538.061768 
	C226.330551,539.398621 226.109131,540.014648 226.221527,540.562195 
	C227.819519,548.346252 227.514603,556.490906 230.659851,563.982666 
	C231.394363,565.732178 231.612900,567.644348 230.898651,569.355835 
	C229.659637,572.324646 230.574585,575.143616 231.857712,577.507996 
	C233.284851,580.137634 233.707672,582.844727 233.986252,585.608093 
	C235.459427,600.221863 237.587570,614.836731 241.235870,628.957520 
	C246.248535,648.359131 250.888535,667.906006 258.154724,686.743896 
	C263.959778,701.793701 269.977234,716.773254 277.038544,731.195007 
	C281.769592,740.857544 286.592194,750.427734 290.814972,760.342224 
	C292.663544,764.682434 294.687164,769.182739 297.946930,772.856934 
	C307.248413,783.341003 314.302917,795.463623 322.367859,806.838806 
	C327.042023,813.431458 333.311768,818.319153 338.442780,824.356201 
	C338.772675,824.744324 339.612640,824.698914 340.294281,824.875671 
	C340.500549,824.163330 340.793976,823.685730 340.742371,823.248901 
	C339.710724,814.518921 339.945557,805.685242 337.894135,797.013428 
	C336.854248,792.617676 336.670807,787.780640 337.259583,783.295288 
	C338.106842,776.840637 335.008240,770.393127 337.606018,764.014404 
	C337.859497,763.392029 337.300446,762.421204 337.075684,761.624268 
	C335.503510,756.049255 335.341309,750.472168 337.108276,744.913208 
	C337.678741,743.118591 337.947388,741.303040 337.366760,739.516663 
	C334.991486,732.208740 337.435425,725.016235 338.137756,717.853333 
	C338.529785,713.855225 337.579346,704.914307 334.254669,702.641418 
	C330.983032,700.404785 328.638916,697.282532 325.692810,694.884949 
	C318.143158,688.740906 312.319824,680.890564 304.586975,674.780090 
	C300.705109,671.712585 297.290405,666.182312 294.027374,661.522827 
	C291.030792,657.243835 287.884003,652.502502 284.553864,649.143799 
	C279.231415,643.775757 275.962189,637.440796 271.801544,631.544373 
	C266.550140,624.102051 264.357086,614.768982 257.491516,608.298035 
	C256.110138,606.996094 256.689178,605.162598 256.288788,602.881348 
M644.383728,308.278259 
	C641.723145,303.783966 639.005127,299.322266 636.427612,294.780853 
	C635.241394,292.690704 635.540344,290.148529 633.477844,288.130920 
	C629.021851,283.771942 625.128052,278.882965 622.904846,272.856842 
	C622.113586,270.711945 620.998840,268.533478 619.510620,266.824005 
	C611.212769,257.292511 604.917419,246.313797 597.254883,236.316162 
	C592.139526,229.642029 585.758484,224.196259 580.569580,217.640381 
	C579.952454,216.860718 578.722900,216.130219 577.313538,216.889389 
	C576.391907,217.722763 576.484436,218.846786 576.691650,220.033203 
	C579.051819,233.543076 581.252686,247.082672 583.782471,260.560577 
	C587.638550,281.104858 590.716370,301.769562 593.247009,322.504700 
	C594.221497,330.489288 594.744263,338.593109 595.503784,346.589722 
	C596.210144,354.026367 597.574646,361.495483 598.225525,369.022430 
	C598.984070,377.795563 599.992615,386.548981 601.020447,395.295929 
	C601.386414,398.410278 603.708191,401.773193 606.337219,400.578979 
	C611.067627,398.430267 615.760498,400.138062 620.330322,399.011230 
	C640.562683,394.022186 658.249268,384.413818 673.521423,370.233551 
	C675.387451,368.500916 675.222839,367.240723 674.538269,365.072968 
	C673.073792,360.435394 670.280029,356.815674 667.503906,352.930817 
	C664.269470,348.404419 662.511169,342.841400 659.951660,337.809906 
	C656.323730,330.677765 652.621521,323.580841 648.798706,316.551727 
	C647.410950,313.999939 648.053040,310.419495 644.383728,308.278259 
M398.618958,129.545593 
	C394.184692,129.557129 390.328094,131.625458 386.815521,133.800232 
	C383.052734,136.129898 378.752228,137.868958 374.947418,139.153610 
	C369.583405,140.964706 367.606140,144.208130 366.214417,148.544724 
	C363.789062,156.102264 365.949951,164.570465 361.792816,171.837738 
	C361.732513,171.943161 361.864471,172.153091 361.894501,172.316498 
	C363.753845,182.430084 360.764465,192.289337 359.962463,202.234207 
	C359.621613,206.460342 359.929688,210.448273 360.293121,214.528107 
	C360.468781,216.499908 362.073334,217.284592 363.494690,216.091263 
	C366.782501,213.330887 370.520966,211.238144 373.885620,208.657425 
	C378.768280,204.912369 383.667664,201.223129 388.871368,197.943771 
	C395.197784,193.956863 402.497559,191.193619 408.191437,186.714035 
	C415.930664,180.625290 427.331848,182.656174 433.438446,174.011551 
	C433.637238,173.730133 434.388763,173.845154 434.880768,173.764053 
	C445.208954,172.061600 454.619873,167.495865 464.481964,164.338409 
	C467.590668,163.343094 468.990662,159.198669 472.429901,159.650726 
	C476.169861,160.142303 478.262085,157.770538 480.824097,156.141281 
	C483.340790,154.540817 483.799500,152.210449 481.218567,150.515823 
	C474.372284,146.020615 469.125397,139.663528 460.848907,136.583511 
	C454.171082,134.098404 447.299835,131.956879 440.763336,129.142029 
	C437.683380,127.815681 435.288055,126.593521 432.106628,128.036743 
	C431.624054,128.255646 430.839569,127.942520 430.237762,127.744659 
	C423.623444,125.570015 416.925049,126.460716 410.154877,126.674957 
	C406.123505,126.802528 403.280884,130.083084 398.618958,129.545593 
M252.236206,341.787659 
	C251.443237,351.117004 247.713791,360.028259 247.992126,369.595215 
	C250.297714,368.195251 251.352829,365.988037 251.658463,363.888214 
	C252.816238,355.934174 259.224487,350.555420 261.416138,342.880707 
	C262.682037,338.447632 266.615479,334.238495 268.898834,329.610809 
	C270.985992,325.380707 272.240662,320.848663 274.656403,316.706512 
	C282.727020,302.868439 292.564392,290.215302 301.010712,276.640259 
	C301.869507,275.260040 302.854340,272.939148 303.902832,272.868561 
	C309.050293,272.521820 309.585327,268.640991 310.950623,265.068817 
	C311.761230,262.947845 313.403381,261.299438 315.268524,259.761169 
	C319.271698,256.459564 322.938202,252.748962 326.732513,249.195114 
	C328.297424,247.729385 328.367432,245.261703 330.481750,244.062927 
	C335.344391,241.305923 337.153320,236.445129 336.736938,231.446167 
	C335.139191,212.265198 335.333527,193.159729 337.618988,174.057159 
	C337.806152,172.492889 338.328796,170.502853 336.430176,169.582886 
	C334.663025,168.726624 333.178253,169.869431 332.034668,171.110794 
	C330.923553,172.316910 329.922760,173.664917 329.088104,175.077408 
	C327.058502,178.512192 325.324982,182.131012 323.168457,185.480118 
	C313.883820,199.899200 302.835663,213.177109 296.705322,229.596191 
	C293.954895,236.962692 289.331512,243.629944 285.557373,250.614120 
	C284.397369,252.760712 282.109680,254.250519 282.107178,257.082916 
	C282.102966,261.865234 279.840973,266.058411 278.176270,270.346680 
	C270.857452,289.200012 263.374146,307.985809 258.139740,327.570648 
	C256.855072,332.377380 256.073395,337.456268 252.236206,341.787659 
M648.023621,164.929214 
	C653.148987,166.329651 658.305542,167.628204 663.384644,169.179993 
	C665.455750,169.812759 666.931335,169.650208 668.022339,167.693298 
	C668.950928,166.027679 669.598938,164.520813 667.974304,162.738434 
	C661.756714,155.917404 655.420593,149.199280 648.246948,143.389252 
	C640.498962,137.114090 632.440308,131.224152 624.596069,125.065674 
	C619.362122,120.956528 617.670654,121.044823 615.515625,127.056496 
	C612.870605,134.434753 609.762695,141.582794 606.278137,148.571335 
	C604.915466,151.304138 605.688782,152.848129 608.062012,154.280472 
	C611.563782,156.393997 615.750610,156.044083 619.385681,157.622330 
	C624.567688,159.872238 630.819946,158.756699 635.493713,161.848526 
	C639.285400,164.356812 642.910156,165.227280 648.023621,164.929214 
M587.216492,108.826805 
	C587.718872,107.225838 589.997437,106.889175 590.051270,104.809547 
	C586.643372,100.050789 580.710754,98.666481 576.002197,96.541191 
	C572.422058,94.925255 567.112183,94.105309 564.023132,92.103439 
	C558.030029,88.219543 551.607666,86.864174 545.133179,84.997444 
	C542.767212,84.315262 540.829163,84.692917 539.284546,86.544769 
	C537.758179,88.374702 539.017517,90.019760 539.926880,91.571152 
	C543.162476,97.091225 545.905762,102.900436 549.070557,108.452026 
	C552.454590,114.388245 556.023254,120.468575 558.733337,126.872749 
	C559.827332,129.457932 561.816345,130.002823 563.973877,128.529648 
	C572.209717,122.906097 580.408264,117.209984 587.216492,108.826805 
M495.400024,80.527832 
	C479.670929,83.180771 463.560852,83.598396 447.553558,87.699623 
	C448.328339,88.699020 448.402039,88.888451 448.536072,88.953461 
	C455.891846,92.522003 465.085449,90.548424 471.650543,96.601631 
	C471.991272,96.915779 473.009247,96.775604 473.565308,96.523537 
	C475.230011,95.768951 476.674286,96.545441 478.271973,96.728355 
	C484.836639,97.479912 488.087738,103.900299 494.160797,105.475143 
	C498.270844,106.540932 503.058868,107.403259 505.968475,110.073189 
	C509.555847,113.365021 514.567688,112.905876 517.519775,117.432648 
	C519.439331,113.016838 518.943604,109.930161 517.229065,106.904388 
	C514.124390,101.425354 510.379822,96.288292 508.129089,90.352058 
	C506.013306,84.771576 502.976410,80.458313 495.400024,80.527832 
z"/>
</svg>